<?xml version="1.0" encoding="utf-8"?>
<!-- Generator: Adobe Illustrator 19.0.0, SVG Export Plug-In . SVG Version: 6.00 Build 0)  -->
<svg version="1.1" id="Objects" xmlns="http://www.w3.org/2000/svg" xmlns:xlink="http://www.w3.org/1999/xlink" x="0px" y="0px"
	 viewBox="0 0 313.1 345.3" style="enable-background:new 0 0 313.1 345.3;" xml:space="preserve">
<style type="text/css">
	.st0{fill:#F8CCAB;}
	.st1{fill:#DAB29C;}
	.st2{fill:#6A4A35;}
	.st3{fill:#FFFFFF;}
	.st4{fill:#0D0E0E;}
	.st5{fill:#EAB998;}
	.st6{fill:#F191BC;}
	.st7{fill:#CE654D;}
	.st8{fill:#D87355;}
	.st9{fill:#CEAC7D;}
	.st10{fill:#2373AF;}
	.st11{fill:#4993D6;}
	.st12{fill:#0B4060;}
	.st13{fill:#EA8460;}
	.st14{fill:#C15736;}
	.st15{fill:#F26E14;}
	.st16{fill:#AF4C09;}
	.st17{fill:#C1540A;}
	.st18{fill:#1E7766;}
	.st19{fill:#BF8966;}
	.st20{fill:#F5DDCA;}
	.st21{fill:#B4805E;}
	.st22{opacity:0.2;fill:#E582AA;}
	.st23{fill:#CEAC7E;}
	.st24{fill:#EF84A3;}
	.st25{fill:#F44286;}
	.st26{clip-path:url(#SVGID_2_);}
	.st27{fill:#B27F5D;}
	.st28{clip-path:url(#SVGID_4_);}
	.st29{clip-path:url(#SVGID_6_);}
	.st30{fill:#F1ACCC;}
	.st31{fill:#E585B5;}
	.st32{fill:#E591BB;}
	.st33{fill:#2CA38C;}
</style>
<g>
	<g>
		<g>
			<path class="st0" d="M105.9,80.5c0,0,3.4-24.3-4.5-39.6c-7.1-13.7-30.1-10.6-34.8-9.8c-4.7-0.8-27.7-3.9-34.8,9.8
				c-7.9,15.3-4.5,39.6-4.5,39.6s-3.4,11.3,4,22.6c4.2,6.5,12.6,11.6,20.7,14.8l-6,9.7c0,0,7.5,4,20.6,4.3
				c13.2-0.3,20.6-4.3,20.6-4.3l-6-9.7c8.1-3.2,16.5-8.3,20.7-14.8C109.3,91.8,105.9,80.5,105.9,80.5z"/>
			<g>
				<g>
					<path class="st0" d="M27.1,74.6c0,0-5.3-3.7-10.4,0c-5.1,3.7-4.2,10,1.9,13c6,3,7.7,0.9,7.7,0.9l1.1-7.9L27.1,74.6z"/>
					<g>
						<g>
							<path class="st1" d="M17,81.2l-0.7-0.3c2.1-4.6,7.4-4.3,7.5-4.3l-0.1,0.8C23.5,77.4,18.8,77.1,17,81.2z"/>
						</g>
						<g>
							<path class="st1" d="M22.4,83.9c-2.4-1.1-3-5.9-3.1-6.1l0.8-0.1c0,0,0.6,4.5,2.6,5.5L22.4,83.9z"/>
						</g>
					</g>
				</g>
				<g>
					<path class="st0" d="M106.6,73.8c0,0,5.2-2.4,8.8,0c3.6,2.4,6.7,8.7,4.3,11.5c-2.4,2.8-10.7,4.3-13.1,3c0,0-0.2-6.9-0.7-8.2
						C105.4,78.9,106.6,73.8,106.6,73.8z"/>
					<g>
						<g>
							<path class="st1" d="M116,80.9c-1.8-3.5-7.6-3.1-7.7-3.1l-0.1-0.8c0.3,0,6.3-0.5,8.4,3.5L116,80.9z"/>
						</g>
						<g>
							<path class="st1" d="M110.7,83.6l-0.3-0.7c1.5-0.6,1.6-3.7,1.5-4.8l0.8-0.1C112.7,78.2,113,82.6,110.7,83.6z"/>
						</g>
					</g>
				</g>
			</g>
			<g>
				<g>
					<g>
						<g>
							<g>
								<path class="st2" d="M40.9,68.9l-0.5-0.4c4.1-5.8,11.5-4.3,11.5-4.3l-0.8,2.4C50.9,66.5,44.4,64,40.9,68.9z"/>
							</g>
							<g>
								<g>
									<path class="st3" d="M82.7,85.1c0,0-1.6-8.9,1.8-12.3c3.4-3.4,8.6,0.2,9.1,5.2c0.5,5-2,8.2-4.9,8.4
										C85.7,86.6,82.7,85.1,82.7,85.1z"/>
									<circle class="st4" cx="87.9" cy="80.1" r="4.1"/>
								</g>
								<g>
									<path class="st3" d="M52.5,85.1c0,0,1.6-8.9-1.8-12.3c-3.4-3.4-8.6,0.2-9.1,5.2c-0.5,5,2,8.2,4.9,8.4
										C49.4,86.6,52.5,85.1,52.5,85.1z"/>
									<circle class="st4" cx="47.2" cy="80.1" r="4.1"/>
								</g>
							</g>
							<g>
								<path class="st2" d="M93.1,68.1l0.5-0.4c-4.9-5.2-12-2.7-12-2.7l1.1,2.3C82.9,67.2,89.1,63.8,93.1,68.1z"/>
							</g>
						</g>
						<ellipse class="st5" cx="67.3" cy="91.6" rx="5.9" ry="3.5"/>
					</g>
					<path class="st6" d="M83.1,97.8C83,98,79.6,104,67.6,104s-15.5-6-15.6-6.2l-0.4,0.1c0.1,0.3,2.9,7.4,15.9,7.4
						s15.8-7.1,15.9-7.4L83.1,97.8z"/>
				</g>
			</g>
		</g>
	</g>
	<path class="st2" d="M129.1,55c3.3-13.1-6.8-20-6.8-20c1.4-17.3-16.7-21.8-16.7-21.8C97.2,0.4,83.9,4.9,83.9,4.9
		c-6.4-4.3-12.4-5.2-17.1-4.8c-4.7-0.4-10.7,0.5-17.1,4.8c0,0-13.3-4.5-21.6,8.4c0,0-18.1,4.5-16.7,21.8c0,0-10.1,6.9-6.8,20
		c0,0-6.5,9.7,2.7,16.1c0,0-4.4,6.6,6.2,9.9c0,0,0.7-8.7,13.4-6.7c1.8,0.3,2.9-14.6,2.9-14.6c5.7-1,14.2-6.4,14.6-12.7
		c0,0,8.4,8.7,22.4,3.9c0,0,0,0,0,0c0,0,0,0,0,0C80.8,55.7,89.2,47,89.2,47c0.4,6.4,8.8,11.7,14.6,12.7c0,0,1.1,14.9,2.9,14.6
		c12.7-1.9,13.4,6.7,13.4,6.7c10.6-3.4,6.2-9.9,6.2-9.9C135.5,64.8,129.1,55,129.1,55z"/>
</g>
<g>
	<g>
		<path class="st7" d="M26.5,227.7c0,0-22.9,27.9-25.3,31.9c-2.4,3.9-2.4,23.1,10.3,29.7c12.7,6.6,25.4,1.3,27.5-5.3
			C41.2,277.5,26.5,227.7,26.5,227.7z"/>
		<path class="st8" d="M26.5,227.7c0,0-22.9,27.9-25.3,31.9c0,0,20.5-13.6,25.6-19.3l0.9-8.2C27,229.4,26.5,227.7,26.5,227.7z"/>
	</g>
	<g>
		<g>
			<g>
				<path class="st0" d="M23,195.7c2.2-6.2,5.1-14.5,6-16.6c0.6-1.5,1.2-2.3,1.7-3.5c0.7,13.5-9.4,31.3-2.4,53.6
					c0,0-2.6,34.5,7.6,55.3c0,0.1,0,0.1,0.1,0.2c-0.5,1.2-5.5,14.1-1.7,35.1c2.7,15.2,4.5,15.8,4.5,15.8s-6,8.6-2,8.6
					c4,0,10.2,0,12.5,0c2.3,0,0.1-4.7-2.1-8.5c0,0,10.2-25.9,6.3-51.7c0,0,9-26.9,10.5-40.7l2-0.1l0.1,0l0.1,0l2,0.1
					c1.5,13.8,10.5,40.7,10.5,40.7c-3.9,25.9,6.3,51.7,6.3,51.7c-2.2,3.9-4.4,8.5-2.1,8.5c2.3,0,8.6,0,12.5,0c4,0-2-8.6-2-8.6
					s1.8-0.5,4.5-15.8c3.8-21-1.2-33.9-1.7-35.1c0-0.1,0-0.1,0.1-0.2c10.3-20.8,7.6-55.3,7.6-55.3c7-22.3-3.1-40-2.4-53.6
					c0.5,1.2,1.1,2,1.7,3.5c1.4,3.5,8.4,23.7,8.4,23.7c1.2,2.9,7.1,20.7,8.5,25.7c1.4,4.9,0.7,9.4,0.7,9.4c-1.9,2.8-2.6,5.2-2.4,7.3
					c0.2,2.1,1.2,5.6,1.5,6.7c0.3,1.1,2.1-0.2,2.1-0.2c0.8,1.5,2.1-0.1,2.1-0.1l0.3,0.2v0c1.6,1.2,3.1-0.5,3.1-0.5
					c2.1-0.2,3.2-2.6,3.2-2.6c0,0,0,0,0,0c0,0,0,0,0,0l0.2-0.1c0,0,0,0,0,0c2.4-1.7,2.9-8,2.9-8s-0.5-1.8-2.5-5.2
					c-1.5-2.4-2.5-14.6-3.8-22.3c-1.3-7.7-4.7-23.2-6-28.8c-1.3-5.6-6.8-21.8-7.1-25.8c-0.2-3.1-1.9-13.6-5-18.6
					c-0.1-0.2-0.2-0.3-0.3-0.5c-0.7-1-1.5-1.7-2.3-2c-2.1-1.4-4.5-2.5-4.5-2.5l0,0c-10.7-4.2-19.3-9.9-22.4-13.8c0-0.1-4.4,0-4.5,0
					H66h-9.3c-0.1,0-4.3,1-4.4,1c-4.3,3.2-11.6,7.5-22.6,12.7l0,0c0,0-2.5,1.1-4.5,2.5c-0.8,0.3-1.6,1-2.3,2
					c-0.1,0.2-0.2,0.3-0.3,0.5c-3.2,5-4.8,15.5-5,18.6c-0.3,3.9-5.9,20.2-7.1,25.8c-0.4,1.7,1.1,3.8,0.4,6.9L23,195.7z"/>
				<g>
					<g>
						<path class="st9" d="M131,248.5c0-0.1,1-2.2,0.9-3.4h-0.1c0.1,1.1-0.9,3.6-1,3.5L131,248.5z"/>
					</g>
					<g>
						<path class="st9" d="M127.5,251.3c0,0,1-1.5,1.3-3.8l-0.2,0c-0.2,2.2-1.4,4.2-1.4,4.2L127.5,251.3z"/>
					</g>
					<g>
						<path class="st9" d="M124.4,251.8c0,0,0-3.1,0.3-4.7l-0.2,0c-0.3,1.6-0.4,4.5-0.4,4.5L124.4,251.8z"/>
					</g>
					<g>
						<path class="st9" d="M121.9,251.7l0.1-0.1c0,0-0.7-3.2-0.7-4.3h-0.2C121.1,248.5,121.9,251.6,121.9,251.7z"/>
					</g>
				</g>
			</g>
			<g>
				<g>
					<path class="st10" d="M37,338.1c-3.2,3.6-2.4,4.9-1.8,5.4c0.6,0.5,3.4,1.7,7.2,1.7c3.8,0,7.1-1.5,7.1-1.5
						c2.9-1.2-1.1-5.6-1.1-5.6s-2.1,2.5-5.9,2.5C38.8,340.6,37,338.1,37,338.1z"/>
					<path class="st10" d="M95.1,338.1c3.2,3.6,2.3,4.9,1.7,5.4c-0.6,0.5-3.4,1.7-7.2,1.7c-3.8,0-7.1-1.5-7.1-1.5
						c-2.9-1.2,1.2-5.6,1.2-5.6s2,2.5,5.7,2.5C93.1,340.6,95.1,338.1,95.1,338.1z"/>
				</g>
				<g>
					<path class="st11" d="M120,162.2c0,0-4.3-14.8-6.7-21.5c-2.3-6.8-27.6-15.2-27.6-15.2c-6.3,5.8-19,4.9-19,4.9s-12.7,0.9-19-4.9
						c0,0-25.2,8.4-27.6,15.2c-2.3,6.8-6.7,21.5-6.7,21.5l17.4,13.4c0,0-9.2,38.5-5.6,49c2.2,6.3,78.2,7.9,81,0.8
						c3-7.5-3.7-49.7-3.7-49.7L120,162.2z"/>
					<path class="st10" d="M94.6,129l-0.3-0.3c-4.8-1.9-8.5-3.2-8.5-3.2c-6.3,5.8-19,4.9-19,4.9s-12.9,0.8-19.3-5.1
						c0,0-3.9,1.5-9,3.6c0,0,5.2,11.1,28.1,11.1C89.5,140.1,94.6,129,94.6,129z"/>
					<polygon class="st10" points="30.8,175.6 37.1,162.8 17.7,148 13.4,162.2 					"/>
					<polygon class="st10" points="102.6,175.6 96.3,162.8 115.7,148 120,162.2 					"/>
					<path class="st10" d="M102.5,175.6c-18.8,4.5-53.1,4.5-71.9,0c0,0-11.2,46.5-7.2,102.1h40.3l1-22.3l1.1-19.4l1.1,19.4l1,22.3
						h40.3C112.7,223.7,102.5,175.6,102.5,175.6z"/>
					<polygon class="st10" points="47.5,125.4 38.5,129 39.7,177.8 51.7,180 					"/>
					<polygon class="st10" points="86,125.5 95.2,129 94,177.8 82,180 					"/>
					<path class="st12" d="M22.9,268.8c0.1,2.9,0.3,5.9,0.5,8.9h40.3l0.8-8.9H22.9z"/>
					<g>
						<path class="st12" d="M67.1,268.8l0.8,8.9h40.3c0.3-3,0.5-6,0.6-8.9H67.1z"/>
					</g>
				</g>
			</g>
			<g>
				<path class="st13" d="M99.5,130.9c0,0-60.2,88.7-76.4,100.9l-1.5,17.7c0,0,91.3-104.8,86.1-114
					C104.3,129.4,99.5,130.9,99.5,130.9z"/>
				<path class="st14" d="M83.5,152.2l-10.8,15.7l12,7.2l10.8-16.8L83.5,152.2z M84.4,171.1l-7.8-4.7l7.1-10.3l7.8,4L84.4,171.1z"/>
			</g>
		</g>
		<g>
			<g>
				<g>
					
						<rect x="25.9" y="161.2" transform="matrix(0.9727 0.2321 -0.2321 0.9727 47.878 -7.97)" class="st15" width="63.8" height="76.6"/>
				</g>
				<g>
					<g>
						<g>
							<circle class="st16" cx="85.9" cy="204.6" r="1"/>
						</g>
						<circle class="st16" cx="67" cy="164.8" r="1"/>
						<g>
							<path class="st17" d="M85.4,204.8c-3.1-6.1-18.7-39.4-18.9-39.8l0.9-0.4c0.2,0.3,15.7,33.7,18.8,39.7L85.4,204.8z"/>
						</g>
					</g>
					<g>
						<g>
							<circle class="st16" cx="84.5" cy="208" r="1"/>
						</g>
						<circle class="st16" cx="48.6" cy="233.3" r="1"/>
						<g>
							<path class="st17" d="M84.8,208.4c-5.5,4.1-35.7,25.1-36,25.3l-0.6-0.8c0.3-0.2,30.5-21.2,35.9-25.3L84.8,208.4z"/>
						</g>
					</g>
				</g>
			</g>
			<g>
				<path class="st0" d="M73.6,201.1c0,0,1.4-1.7,0.3-2.1c-1.1-0.4-4.5-1.5-6.6-1.8c-2.1-0.3-4.6,0.3-7.4,2c0,0-4.5,0.5-9.4-1.2
					c-3-1-10.6-3.9-16.8-6.3c-1.6-0.6-6.6-2.9-7.1-4c-0.5-1.1,3.9-12.1,3.9-12.1l-14.3-11.3c-2.9,5.7-9.5,24.1-6.1,31.1
					c3,6.1,24,9.3,24,9.3l0,0c0.2,0.1,0.5,0.1,0.7,0.2c7.6,1.6,19.7,3.2,22.1,4.8c3.4,2.2,5.1,2.8,5.1,2.8s6.3-0.2,8.1-2.5
					c0,0,0,0,0,0l0.1-0.2c0,0,0,0,0,0c0,0,0,0,0,0c0,0,2.4-1,2.7-3.1c0,0,1.7-1.4,0.6-3.1h0l-0.2-0.3
					C73.5,203.3,75.1,202,73.6,201.1z"/>
				<g>
					<g>
						<path class="st9" d="M70.2,209.9c-0.1,0-2.1,0.9-3.2,0.7l0-0.1c1.1,0.1,3.5-0.8,3.4-0.8L70.2,209.9z"/>
					</g>
					<g>
						<path class="st9" d="M73.1,206.6c0,0-1.5,0.9-3.7,1.1l0-0.2c2.1-0.1,4-1.2,4-1.2L73.1,206.6z"/>
					</g>
					<g>
						<path class="st9" d="M73.7,203.5c0,0-3-0.1-4.5,0.1l0-0.2c1.5-0.2,4.3-0.2,4.3-0.2L73.7,203.5z"/>
					</g>
					<g>
						<path class="st9" d="M73.7,201l-0.1,0.1c0,0-3-0.8-4.1-0.9l0-0.2C70.7,200,73.6,200.9,73.7,201z"/>
					</g>
				</g>
			</g>
		</g>
	</g>
</g>
<path class="st18" d="M253,105.5h-8.1h-0.1h-8.1c-33,3.6-48.9,58.3-43.2,87.3c5.7,29,26.1,28.7,26.1,28.7h25h0.5h25
	c0,0,20.4,0.3,26.1-28.7C301.9,163.7,286,109.1,253,105.5z"/>
<path class="st19" d="M285.7,79.1l-33.7,33c0,0,32.3-2.9,55.7-5.7l-18.3-26.2L285.7,79.1z"/>
<path class="st19" d="M206.6,79.1l30.7,33c0,0-29.2-2.9-52.6-5.7l18.3-26.2L206.6,79.1z"/>
<path class="st20" d="M285.6,73.6c0,0,3.4-24.5-4.6-39.9c-7.1-13.8-30.3-10.6-35-9.8c-4.7-0.8-27.9-4-35,9.8
	c-8,15.4-4.6,39.9-4.6,39.9s-3.4,11.4,4,22.8c4.9,7.5,15.3,13.2,24.4,16.2l-3.9,9c0,0,5.3,4.1,14.7,4.3c9.4-0.3,14.7-4.3,14.7-4.3
	l-3.8-8.7c9.3-2.9,20.1-8.7,25.1-16.4C289,85,285.6,73.6,285.6,73.6z"/>
<g>
	<path class="st21" d="M260.7,58.7c0,0,3.2-0.6,5.1-1c1.9-0.4,5.2-0.8,8.6,0.5c3.4,1.3,4.1,1.8,4.6,1.9c0,0-5.6-1.8-8-1.4
		c-2.4,0.4-7.4,3-8.8,3C260.9,61.7,260.3,59.4,260.7,58.7z"/>
	<path class="st21" d="M231.7,58.7c0,0-3.2-0.6-5.1-1c-1.9-0.4-5.2-0.8-8.6,0.5c-3.4,1.3-4.1,1.8-4.6,1.9c0,0,5.6-1.8,8-1.4
		c2.4,0.4,7.4,3,8.8,3C231.6,61.7,232.1,59.4,231.7,58.7z"/>
</g>
<g>
	<path class="st4" d="M271.9,70.9c1.4-0.8,2.5-2.3,2.5-2.3c-1,1-3.8,0.9-5.1,0.8c-0.3-0.1-0.7-0.2-1.1-0.2c-2.6,0-4.7,2.5-4.7,5.7
		c0,3.1,2.1,5.7,4.7,5.7c2.6,0,4.7-2.5,4.7-5.7c0-1-0.2-2-0.6-2.8c1.3-0.1,2.8-1.6,2.8-1.6C274.4,70.8,272.7,70.9,271.9,70.9z"/>
	<path class="st4" d="M221.4,70.9c-1.4-0.8-2.5-2.3-2.5-2.3c1,1,3.8,0.9,5.1,0.8c0.3-0.1,0.7-0.2,1.1-0.2c2.6,0,4.7,2.5,4.7,5.7
		c0,3.1-2.1,5.7-4.7,5.7c-2.6,0-4.7-2.5-4.7-5.7c0-1,0.2-2,0.6-2.8c-1.3-0.1-2.8-1.6-2.8-1.6C218.9,70.8,220.6,70.9,221.4,70.9z"/>
</g>
<g>
	<g>
		<path class="st22" d="M277.9,82.3c0.7,1.9-1.3,4.3-4.5,5.5c-3.2,1.2-6.4,0.7-7.1-1.2c-0.7-1.9,1.3-4.3,4.5-5.5
			C274.1,79.9,277.2,80.5,277.9,82.3z"/>
		<path class="st22" d="M225.5,86.7c0.7-1.9-1.3-4.3-4.5-5.5c-3.2-1.2-6.4-0.7-7,1.2c-0.7,1.9,1.3,4.3,4.5,5.5
			C221.6,89.1,224.8,88.5,225.5,86.7z"/>
		<g>
			<circle class="st23" cx="223.6" cy="84.9" r="0.4"/>
			<circle class="st23" cx="219.4" cy="84.1" r="0.4"/>
			<circle class="st23" cx="215.9" cy="82.1" r="0.4"/>
			<circle class="st23" cx="221.2" cy="86.8" r="0.5"/>
			<circle class="st23" cx="216.7" cy="85.7" r="0.4"/>
		</g>
		<g>
			<circle class="st23" cx="268.6" cy="84.9" r="0.4"/>
			<circle class="st23" cx="272.8" cy="84.1" r="0.4"/>
			<circle class="st23" cx="276.3" cy="82.1" r="0.4"/>
			<circle class="st23" cx="271" cy="86.8" r="0.5"/>
			<circle class="st23" cx="275.5" cy="85.7" r="0.4"/>
		</g>
	</g>
	<g>
		<ellipse class="st1" cx="245.8" cy="91" rx="4.6" ry="2.8"/>
		<g>
			<path class="st24" d="M232.5,99.4c3.1-0.1,4.6-0.3,9.3-0.3c1.7,0,2.6,0.6,4.1,0.6c1.4-0.1,2.9-0.5,4.2-0.6
				c1.3-0.1,7.9,0.3,8.8-0.3c0,0-6.4,2.7-9.9,2.8c-3.5,0.1-5.6,0.1-7.6-0.2C233.9,100.6,233.3,99.4,232.5,99.4z"/>
			<path class="st24" d="M232.8,99.6c0,0,4.5,4.3,7.8,5.1c3.3,0.8,7.4,1.1,9.5,0.3c2.1-0.8,6.6-4.4,7.6-5.7c0,0-3.9,1.7-6.9,2.1
				c-2.9,0.4-7.8,0.1-9.6,0C238.8,101.3,232.8,99.6,232.8,99.6z"/>
			<g>
				<g>
					<path class="st25" d="M227.1,98.5l-0.2-0.2c0.1-0.1,1.7-1.4,3.1-1.2l0,0.3C228.7,97.2,227.1,98.5,227.1,98.5z"/>
				</g>
				<g>
					<path class="st25" d="M262.1,98.4c-0.2-0.6-1.6-1.6-2.2-1.9l0.1-0.2c0.1,0.1,2,1.3,2.3,2.1L262.1,98.4z"/>
				</g>
				<g>
					<path class="st25" d="M246.6,101.8c-1.8,0-3.9-0.1-6.4-0.3c-5.5-0.5-11.7-3.9-11.7-3.9l0.1-0.2c0.1,0,6.2,3.4,11.6,3.9
						c6.1,0.5,10.1,0.4,12.8-0.4c3-0.9,6.5-2.5,8.1-3.8l0.2,0.2c-1.6,1.3-5.1,3-8.2,3.9C251.4,101.6,249.3,101.8,246.6,101.8z"/>
				</g>
			</g>
		</g>
	</g>
</g>
<g>
	<g>
		<path class="st20" d="M206.1,67.6c0,0-6.7,1.5-7.1,6.1c-0.4,4.6,2.5,8,6.6,8l0.7-8.1L206.1,67.6z"/>
		<g>
			<path class="st1" d="M201.4,74.6l-0.8-0.1c0.3-1.9,3.3-2.3,3.5-2.3l0.1,0.8C203.4,73.1,201.5,73.5,201.4,74.6z"/>
		</g>
		<g>
			<path class="st1" d="M203.9,77.6c-1.7-1.4-1.7-4.5-1.7-4.6l0.8,0c0,0,0,2.8,1.4,4L203.9,77.6z"/>
		</g>
	</g>
	<g>
		<path class="st20" d="M286,67.8c0,0,6.2,1.3,6.6,5.9c0.4,4.6-2.5,8-6.6,8l-0.7-8.1L286,67.8z"/>
		<g>
			<path class="st1" d="M290.3,74.6c-0.2-1.1-2.1-1.6-2.8-1.7l0.1-0.8c0.1,0,3.1,0.4,3.5,2.3L290.3,74.6z"/>
		</g>
		<g>
			<path class="st1" d="M287.8,77.6l-0.5-0.6c1.4-1.2,1.4-4,1.4-4l0.8,0C289.5,73.1,289.5,76.2,287.8,77.6z"/>
		</g>
	</g>
</g>
<path class="st19" d="M290.1,34c-6-13.2-24.2-31.7-44.6-24.9C225.2,2.3,207,20.8,201,34c-6.1,13.3,0,36.1,0,36.1l4.7-2.3
	c19.2-6,37-28.1,39.9-31.9c2.9,3.8,20.7,25.9,39.9,31.9l4.7,2.3C290.1,70.1,296.2,47.3,290.1,34z"/>
<g>
	<defs>
		<path id="SVGID_1_" d="M290.1,34c-6-13.2-24.2-31.7-44.6-24.9C225.2,2.3,207,20.8,201,34c-6.1,13.3,0,36.1,0,36.1l4.7-2.3
			c19.2-6,37-28.1,39.9-31.9c2.9,3.8,20.7,25.9,39.9,31.9l4.7,2.3C290.1,70.1,296.2,47.3,290.1,34z"/>
	</defs>
	<clipPath id="SVGID_2_">
		<use xlink:href="#SVGID_1_"  style="overflow:visible;"/>
	</clipPath>
	<g class="st26">
		<g>
			<path class="st27" d="M289.9,70.5c-28.6-12.9-41.2-36.7-43.8-42.2c-2.2,6.7-10.2,15.6-23.7,26.6c-10.7,8.7-21.1,15.5-21.2,15.6
				l-0.5-0.8c0.4-0.3,41.2-27.1,44.8-42.9l0.3-1.5l0.6,1.4c0.1,0.3,11.9,28.5,43.9,42.9L289.9,70.5z"/>
		</g>
		<g>
			<path class="st27" d="M292.7,62.1c-28.7-11.5-44-35.9-47-41.1c-2.7,8.3-11.2,17.6-25.2,27.7c-10.8,7.8-21.1,13.3-21.2,13.3
				l-0.4-0.8c0.1-0.1,10.4-5.4,21.1-13.3c14.2-10.3,22.9-20.1,25.1-28.3l0.3-1.2l0.6,1.1c0.1,0.3,15.4,28.9,47,41.6L292.7,62.1z"/>
		</g>
		<g>
			<path class="st27" d="M198.4,46.1l-0.3-0.9c0.4-0.1,41.4-13,47-32.7l0.3-1l0.6,0.9c0.2,0.3,15.6,25.9,46.7,31.3l-0.2,0.9
				c-28.3-4.9-43.8-26.3-46.8-30.9c-2.8,8.1-11.4,16-25.7,23.4C209,42.8,198.5,46,198.4,46.1z"/>
		</g>
		<g>
			<path class="st27" d="M207.5,23.5c-0.7,0-1.1,0-1.1,0l0-0.9c0.2,0,25.1,1,38.8-13.7l0.4-0.5l0.3,0.5c0,0,2.3,3.6,7.6,6.7
				c4.9,2.8,13.5,5.8,26.5,3.8l0.1,0.9c-22.8,3.6-32.8-7.9-34.7-10.4C233.2,22.7,212.6,23.5,207.5,23.5z"/>
		</g>
	</g>
</g>
<g>
	<g>
		<path class="st20" d="M310.5,234.4c-1.5-2.4-2.5-14.6-3.8-22.3c-1.3-7.7-4.7-23.2-6-28.8c-1.3-5.6-6.8-21.8-7.1-25.8
			c-0.2-3.1-1.9-13.6-5-18.6c-0.1-0.2-0.2-0.3-0.3-0.5c-0.7-1-1.5-1.7-2.3-2c-2.1-1.4-4.5-2.5-4.5-2.5h0
			c-10.7-4.2-19.3-9.9-22.4-13.8c0-0.1-4.4,0-4.5,0h-9.3h-9.3c-0.1,0-4.3,1-4.4,1c-4.3,3.2-11.6,7.5-22.6,12.7h0
			c0,0-2.5,1.1-4.5,2.5c-0.8,0.3-1.6,1-2.3,2c-0.1,0.2-0.2,0.3-0.3,0.5c-3.2,5-4.8,15.5-5,18.6c-0.3,3.9-5.9,20.2-7.1,25.8
			c-1.3,5.6-4.7,21.1-6,28.8c-1.3,7.7-2.3,19.9-3.8,22.3c-2.1,3.5-2.5,5.2-2.5,5.2s0.5,6.3,2.9,8c0,0,0,0,0,0l0.2,0.1c0,0,0,0,0,0
			c0,0,0,0,0,0c0,0,1.1,2.4,3.2,2.6c0,0,1.4,1.6,3.1,0.5v0l0.3-0.2c0,0,1.3,1.6,2.1,0.1c0,0,1.8,1.4,2.1,0.2
			c0.3-1.1,1.3-4.6,1.5-6.7c0.2-2.1-0.5-4.6-2.4-7.3c0,0-0.7-4.5,0.7-9.4c1.4-4.9,7.3-22.8,8.5-25.7c0,0,7-20.2,8.4-23.7
			c0.6-1.5,1.2-2.3,1.7-3.5c0.7,13.5-9.4,31.3-2.4,53.6c0,0-2.6,34.5,7.6,55.3c0,0.1,0,0.1,0.1,0.2c-0.5,1.2-5.5,14.1-1.7,35.1
			c2.7,15.2,4.5,15.8,4.5,15.8s-6,8.6-2,8.6c4,0,10.2,0,12.5,0c2.3,0,0.1-4.7-2.1-8.5c0,0,10.2-25.9,6.3-51.7c0,0,9-26.9,10.5-40.7
			l2-0.1l0.1,0l0.1,0l2,0.1c1.5,13.8,10.5,40.7,10.5,40.7c-3.9,25.9,6.3,51.7,6.3,51.7c-2.2,3.9-4.4,8.5-2.1,8.5c2.3,0,8.6,0,12.5,0
			c4,0-2-8.6-2-8.6s1.8-0.5,4.5-15.8c3.8-21-1.2-33.9-1.7-35.1c0-0.1,0-0.1,0.1-0.2c10.3-20.8,7.6-55.3,7.6-55.3
			c7-22.3-3.1-40-2.4-53.6c0.5,1.2,1.1,2,1.7,3.5c1.4,3.5,8.4,23.7,8.4,23.7c1.2,2.9,7.1,20.7,8.5,25.7c1.4,4.9,0.7,9.4,0.7,9.4
			c-1.9,2.8-2.6,5.2-2.4,7.3c0.2,2.1,1.2,5.6,1.5,6.7c0.3,1.1,2.1-0.2,2.1-0.2c0.8,1.5,2.1-0.1,2.1-0.1l0.3,0.2v0
			c1.6,1.2,3.1-0.5,3.1-0.5c2.1-0.2,3.2-2.6,3.2-2.6c0,0,0,0,0,0c0,0,0,0,0,0l0.2-0.1c0,0,0,0,0,0c2.4-1.7,2.9-8,2.9-8
			S312.6,237.9,310.5,234.4z"/>
		<g>
			<defs>
				<path id="SVGID_3_" d="M310.5,234.4c-1.5-2.4-2.5-14.6-3.8-22.3c-1.3-7.7-4.7-23.2-6-28.8c-1.3-5.6-6.8-21.8-7.1-25.8
					c-0.2-3.1-1.9-13.6-5-18.6c-0.1-0.2-0.2-0.3-0.3-0.5c-0.7-1-1.5-1.7-2.3-2c-2.1-1.4-4.5-2.5-4.5-2.5h0
					c-10.7-4.2-19.3-9.9-22.4-13.8c0-0.1-4.4,0-4.5,0h-9.3h-9.3c-0.1,0-4.3,1-4.4,1c-4.3,3.2-11.6,7.5-22.6,12.7h0
					c0,0-2.5,1.1-4.5,2.5c-0.8,0.3-1.6,1-2.3,2c-0.1,0.2-0.2,0.3-0.3,0.5c-3.2,5-4.8,15.5-5,18.6c-0.3,3.9-5.9,20.2-7.1,25.8
					c-1.3,5.6-4.7,21.1-6,28.8c-1.3,7.7-2.3,19.9-3.8,22.3c-2.1,3.5-2.5,5.2-2.5,5.2s0.5,6.3,2.9,8c0,0,0,0,0,0l0.2,0.1c0,0,0,0,0,0
					c0,0,0,0,0,0c0,0,1.1,2.4,3.2,2.6c0,0,1.4,1.6,3.1,0.5v0l0.3-0.2c0,0,1.3,1.6,2.1,0.1c0,0,1.8,1.4,2.1,0.2
					c0.3-1.1,1.3-4.6,1.5-6.7c0.2-2.1-0.5-4.6-2.4-7.3c0,0-0.7-4.5,0.7-9.4c1.4-4.9,7.3-22.8,8.5-25.7c0,0,7-20.2,8.4-23.7
					c0.6-1.5,1.2-2.3,1.7-3.5c0.7,13.5-9.4,31.3-2.4,53.6c0,0-2.6,34.5,7.6,55.3c0,0.1,0,0.1,0.1,0.2c-0.5,1.2-5.5,14.1-1.7,35.1
					c2.7,15.2,4.5,15.8,4.5,15.8s-6,8.6-2,8.6c4,0,10.2,0,12.5,0c2.3,0,0.1-4.7-2.1-8.5c0,0,10.2-25.9,6.3-51.7
					c0,0,9-26.9,10.5-40.7l2-0.1l0.1,0l0.1,0l2,0.1c1.5,13.8,10.5,40.7,10.5,40.7c-3.9,25.9,6.3,51.7,6.3,51.7
					c-2.2,3.9-4.4,8.5-2.1,8.5c2.3,0,8.6,0,12.5,0c4,0-2-8.6-2-8.6s1.8-0.5,4.5-15.8c3.8-21-1.2-33.9-1.7-35.1c0-0.1,0-0.1,0.1-0.2
					c10.3-20.8,7.6-55.3,7.6-55.3c7-22.3-3.1-40-2.4-53.6c0.5,1.2,1.1,2,1.7,3.5c1.4,3.5,8.4,23.7,8.4,23.7
					c1.2,2.9,7.1,20.7,8.5,25.7c1.4,4.9,0.7,9.4,0.7,9.4c-1.9,2.8-2.6,5.2-2.4,7.3c0.2,2.1,1.2,5.6,1.5,6.7c0.3,1.1,2.1-0.2,2.1-0.2
					c0.8,1.5,2.1-0.1,2.1-0.1l0.3,0.2v0c1.6,1.2,3.1-0.5,3.1-0.5c2.1-0.2,3.2-2.6,3.2-2.6c0,0,0,0,0,0c0,0,0,0,0,0l0.2-0.1
					c0,0,0,0,0,0c2.4-1.7,2.9-8,2.9-8S312.6,237.9,310.5,234.4z"/>
			</defs>
			<clipPath id="SVGID_4_">
				<use xlink:href="#SVGID_3_"  style="overflow:visible;"/>
			</clipPath>
			<g class="st28">
				<g>
					<path class="st9" d="M180.5,248.3c0-0.1-0.9-2.1-0.8-3.2h0.1c-0.1,1.1,0.9,3.4,0.9,3.3L180.5,248.3z"/>
				</g>
				<g>
					<path class="st9" d="M183.8,251c0,0-1-1.5-1.2-3.6l0.2,0c0.2,2.1,1.3,4,1.3,4L183.8,251z"/>
				</g>
				<g>
					<path class="st9" d="M186.7,251.5c0,0,0-3-0.3-4.5l0.2,0c0.3,1.5,0.3,4.3,0.3,4.3L186.7,251.5z"/>
				</g>
				<g>
					<path class="st9" d="M189.2,251.4l-0.1-0.1c0,0,0.7-3,0.7-4.1h0.2C190,248.3,189.2,251.3,189.2,251.4z"/>
				</g>
			</g>
		</g>
		<g>
			<defs>
				<path id="SVGID_5_" d="M310.5,234.4c-1.5-2.4-2.5-14.6-3.8-22.3c-1.3-7.7-4.7-23.2-6-28.8c-1.3-5.6-6.8-21.8-7.1-25.8
					c-0.2-3.1-1.9-13.6-5-18.6c-0.1-0.2-0.2-0.3-0.3-0.5c-0.7-1-1.5-1.7-2.3-2c-2.1-1.4-4.5-2.5-4.5-2.5h0
					c-10.7-4.2-19.3-9.9-22.4-13.8c0-0.1-4.4,0-4.5,0h-9.3h-9.3c-0.1,0-4.3,1-4.4,1c-4.3,3.2-11.6,7.5-22.6,12.7h0
					c0,0-2.5,1.1-4.5,2.5c-0.8,0.3-1.6,1-2.3,2c-0.1,0.2-0.2,0.3-0.3,0.5c-3.2,5-4.8,15.5-5,18.6c-0.3,3.9-5.9,20.2-7.1,25.8
					c-1.3,5.6-4.7,21.1-6,28.8c-1.3,7.7-2.3,19.9-3.8,22.3c-2.1,3.5-2.5,5.2-2.5,5.2s0.5,6.3,2.9,8c0,0,0,0,0,0l0.2,0.1c0,0,0,0,0,0
					c0,0,0,0,0,0c0,0,1.1,2.4,3.2,2.6c0,0,1.4,1.6,3.1,0.5v0l0.3-0.2c0,0,1.3,1.6,2.1,0.1c0,0,1.8,1.4,2.1,0.2
					c0.3-1.1,1.3-4.6,1.5-6.7c0.2-2.1-0.5-4.6-2.4-7.3c0,0-0.7-4.5,0.7-9.4c1.4-4.9,7.3-22.8,8.5-25.7c0,0,7-20.2,8.4-23.7
					c0.6-1.5,1.2-2.3,1.7-3.5c0.7,13.5-9.4,31.3-2.4,53.6c0,0-2.6,34.5,7.6,55.3c0,0.1,0,0.1,0.1,0.2c-0.5,1.2-5.5,14.1-1.7,35.1
					c2.7,15.2,4.5,15.8,4.5,15.8s-6,8.6-2,8.6c4,0,10.2,0,12.5,0c2.3,0,0.1-4.7-2.1-8.5c0,0,10.2-25.9,6.3-51.7
					c0,0,9-26.9,10.5-40.7l2-0.1l0.1,0l0.1,0l2,0.1c1.5,13.8,10.5,40.7,10.5,40.7c-3.9,25.9,6.3,51.7,6.3,51.7
					c-2.2,3.9-4.4,8.5-2.1,8.5c2.3,0,8.6,0,12.5,0c4,0-2-8.6-2-8.6s1.8-0.5,4.5-15.8c3.8-21-1.2-33.9-1.7-35.1c0-0.1,0-0.1,0.1-0.2
					c10.3-20.8,7.6-55.3,7.6-55.3c7-22.3-3.1-40-2.4-53.6c0.5,1.2,1.1,2,1.7,3.5c1.4,3.5,8.4,23.7,8.4,23.7
					c1.2,2.9,7.1,20.7,8.5,25.7c1.4,4.9,0.7,9.4,0.7,9.4c-1.9,2.8-2.6,5.2-2.4,7.3c0.2,2.1,1.2,5.6,1.5,6.7c0.3,1.1,2.1-0.2,2.1-0.2
					c0.8,1.5,2.1-0.1,2.1-0.1l0.3,0.2v0c1.6,1.2,3.1-0.5,3.1-0.5c2.1-0.2,3.2-2.6,3.2-2.6c0,0,0,0,0,0c0,0,0,0,0,0l0.2-0.1
					c0,0,0,0,0,0c2.4-1.7,2.9-8,2.9-8S312.6,237.9,310.5,234.4z"/>
			</defs>
			<clipPath id="SVGID_6_">
				<use xlink:href="#SVGID_5_"  style="overflow:visible;"/>
			</clipPath>
			<g class="st29">
				<g>
					<path class="st9" d="M310,248.3c0-0.1,0.9-2.1,0.8-3.2h-0.1c0.1,1.1-0.9,3.4-0.9,3.3L310,248.3z"/>
				</g>
				<g>
					<path class="st9" d="M306.7,251c0,0,1-1.5,1.2-3.6l-0.2,0c-0.2,2.1-1.3,4-1.3,4L306.7,251z"/>
				</g>
				<g>
					<path class="st9" d="M303.8,251.5c0,0,0-3,0.3-4.5l-0.2,0c-0.3,1.5-0.3,4.3-0.3,4.3L303.8,251.5z"/>
				</g>
				<g>
					<path class="st9" d="M301.3,251.4l0.1-0.1c0,0-0.7-3-0.7-4.1h-0.2C300.5,248.3,301.3,251.3,301.3,251.4z"/>
				</g>
			</g>
		</g>
	</g>
	<g>
		<g>
			<g>
				<g>
					<path class="st30" d="M306.1,171.4c0,0-11.2-27.4-13.8-32.7c-2.6-5.2-32.1-17.5-32.1-17.5c-2.9,4.5-6.6,7.5-14.7,7.5
						c-7,0-11.8-3.1-14.7-7.5c0,0-29.4,12.3-32.1,17.5c-2.6,5.2-13.8,32.7-13.8,32.7l23.7,10.9c0,0-3.7,19.8-5.6,31.5
						c0,0,31.7,0,42.3,0c0.1,0,0.3,0,0.4,0c10.6,0,42.3,0,42.3,0c-2-11.8-5.6-31.5-5.6-31.5L306.1,171.4z"/>
					<path class="st31" d="M266.1,123.7L266.1,123.7c-3.5-1.6-5.9-2.6-5.9-2.6c-2.9,4.5-6.6,7.5-14.7,7.5c-7,0-11.8-3.1-14.7-7.5
						c0,0-2.7,1.1-6.4,2.8c0,0,6.5,11.2,20.4,11.2C258.6,135.2,266.1,123.7,266.1,123.7z"/>
					<polygon class="st31" points="208.7,182.3 211.8,174.7 188.4,162.9 185,171.4 					"/>
					<polygon class="st31" points="282.4,182.3 279.3,174.7 302.6,162.9 306.1,171.4 					"/>
					<path class="st32" d="M280.3,174.5c-0.1-0.2-5.9-16.1-0.2-26.9c2.4-4.5,6.5-7.5,12.2-9c-0.1-0.3-0.4-0.6-0.6-0.9
						c-5.8,1.6-10,4.7-12.4,9.4c-5.9,11.2-0.1,27,0.2,27.7L280.3,174.5z"/>
					<path class="st32" d="M210.7,174.5c0.1-0.2,5.9-16.1,0.2-26.9c-2.4-4.5-6.5-7.5-12.2-9c0.1-0.3,0.4-0.6,0.6-0.9
						c5.8,1.6,10,4.7,12.4,9.4c5.9,11.2,0.1,27-0.2,27.7L210.7,174.5z"/>
				</g>
				<path class="st31" d="M203,213.8c0,0,31.7,0,42.3,0c0.1,0,0.3,0,0.4,0c10.6,0,42.3,0,42.3,0c-0.4-2.4-0.9-5.1-1.4-7.9h-71.1
					h-11.2C203.9,208.7,203.4,211.4,203,213.8z"/>
			</g>
			<g>
				<path class="st30" d="M286,213.8h-40.3h-0.4h-40.3c0,0-9.1,43.6-9.4,45.9h49.7h0.4h49.7C295.1,257.4,286,213.8,286,213.8z"/>
				<path class="st31" d="M195.7,259.8h49.7h0.4h49.7c0-0.3-0.2-1.3-0.5-2.8h-98.7C195.9,258.4,195.7,259.5,195.7,259.8z"/>
			</g>
		</g>
		<g>
			<path class="st31" d="M216,337.9c-3.4,3.7-2.5,5.1-1.9,5.7c0.7,0.5,3.6,1.8,7.6,1.8c4,0,7.5-1.5,7.5-1.5c3-1.2-1.1-5.9-1.1-5.9
				s-2.2,2.6-6.2,2.6C217.8,340.5,216,337.9,216,337.9z"/>
			<path class="st31" d="M274.5,337.9c3.4,3.7,2.4,5.1,1.7,5.7c-0.7,0.5-3.6,1.8-7.6,1.8c-4,0-7.5-1.5-7.5-1.5
				c-3-1.2,1.3-5.9,1.3-5.9s2.1,2.6,6,2.6C272.5,340.5,274.5,337.9,274.5,337.9z"/>
		</g>
	</g>
</g>
<g>
	<path class="st33" d="M224.3,123.9c0,0-8.5,10-8.9,32.4c-0.2,10.6-2.4,17.3-4.1,19.2c0,0-8.6-26.3-2.8-44.4
		C208.6,131,213.5,119.4,224.3,123.9z"/>
	<path class="st33" d="M266.6,123.9c0,0,8.5,10,8.9,32.4c0.2,10.6,2.4,17.3,4.1,19.2c0,0,8.6-26.3,2.8-44.4
		C282.3,131,277.4,119.4,266.6,123.9z"/>
</g>
</svg>
