<?xml version="1.0" encoding="utf-8"?>
<!-- Generator: Adobe Illustrator 19.0.0, SVG Export Plug-In . SVG Version: 6.00 Build 0)  -->
<svg version="1.1" id="object" xmlns="http://www.w3.org/2000/svg" xmlns:xlink="http://www.w3.org/1999/xlink" x="0px" y="0px"
	 viewBox="0 0 800 800" style="enable-background:new 0 0 800 800;" xml:space="preserve">
<style type="text/css">
	.st0{fill:#D8996F;}
	.st1{fill:#EDAC80;}
	.st2{fill:#8A3514;}
	.st3{fill:#FFFFFF;}
	.st4{fill:#BC4D3E;}
	.st5{fill:#FDF9F4;}
	.st6{fill:#DB5E52;}
	.st7{opacity:0.4;fill:#F99475;}
	.st8{fill:#D88D5B;}
	.st9{fill:#507B8E;}
	.st10{fill:#6296A8;}
	.st11{fill:#3F6977;}
	.st12{fill:#87471D;}
	.st13{fill:#6D2712;}
	.st14{fill:#D8986C;}
	.st15{fill:#FDFAF5;}
	.st16{fill:#2B4559;}
	.st17{fill:#FFC396;}
	.st18{fill:#DD996B;}
	.st19{fill:#BA4E04;}
	.st20{fill:#00A99D;}
	.st21{fill:#29CEBE;}
	.st22{fill:#375A70;}
	.st23{fill:#64676D;}
	.st24{fill:#898E96;}
	.st25{fill:#B2805F;}
	.st26{fill:#B78D97;}
	.st27{fill:#C9804F;}
	.st28{fill:#FFDBB3;}
	.st29{fill:#D89466;}
	.st30{fill:#FFA7B6;}
	.st31{fill:#D6986E;}
	.st32{fill:#F291A6;}
	.st33{fill:#F9D153;}
	.st34{fill:#F7931E;}
	.st35{fill:#F975AB;}
	.st36{fill:#F29EC3;}
	.st37{opacity:0.6;fill:#E2649E;}
</style>
<g>
	<g>
		<path class="st0" d="M330.6,217.7c0,0-43.2,0-43.2,0c-0.7,22.1-9.9,27.2-26.4,29.6c3.5,19.5,28.1,21.3,46.8,20.4
			c0.4,0,0.8,0,1.2-0.1c0.4,0,0.8,0,1.2,0.1c18.7,0.9,43.4-0.9,46.8-20.4C340.5,245,328.6,240.5,330.6,217.7z"/>
		<g>
			<g>
				<path class="st0" d="M231.8,151c-0.1-0.8,0.1-1.3-0.1-2.1c-26.1-10.5-24,31.7,2.3,29.2L231.8,151z"/>
				<path class="st1" d="M378,151c0.1-0.8-0.1-1.3,0.1-2.1c26.1-10.5,24,31.7-2.3,29.2L378,151z"/>
			</g>
			<ellipse class="st1" cx="304.9" cy="160.9" rx="76.9" ry="67.4"/>
			<path class="st2" d="M228.4,149c0,0,14.8-8.6,28-26.9c0,0,74.7,24.9,106.2,0c0,0,10.3,9.5,16.5,28.9l3.3-4
				c0,0,8.1-65.2-57.1-82.1c0,0-0.7-21.2-20.5,2.2c0,0-5.1-21.2-12.5-0.7C292.3,66.4,216.8,78.1,228.4,149z"/>
			<g>
				<g>
					<g>
						<ellipse cx="268.3" cy="161.2" rx="7" ry="9.7"/>
						<ellipse class="st3" cx="267.3" cy="158.7" rx="3.8" ry="3.1"/>
					</g>
					<g>
						<ellipse cx="341.6" cy="161.2" rx="7" ry="9.7"/>
						<ellipse class="st3" cx="340.5" cy="158.7" rx="3.8" ry="3.1"/>
					</g>
				</g>
				<g>
					<path class="st2" d="M257,153.6c0,0,4.4-11.4,18.7-5.1l-0.4-6.2C275.3,142.3,256.6,137.5,257,153.6z"/>
					<path class="st2" d="M352.9,153.6c0,0-4.4-11.4-18.7-5.1l0.4-6.2C334.6,142.3,353.3,137.5,352.9,153.6z"/>
				</g>
			</g>
			<g>
				<path class="st4" d="M276.9,189.6c0,0,30,13.9,58.6-1.5C335.5,188.1,312.8,241.9,276.9,189.6z"/>
				<path class="st5" d="M276.9,189.6c0,0,32.6,12.8,58.6-2.2C335.5,187.4,312.4,217,276.9,189.6z"/>
				<path class="st6" d="M291.6,206c0,0,10.6-2.2,33-1.8C324.5,204.2,311,220.7,291.6,206z"/>
			</g>
			<g>
				<ellipse class="st7" cx="258.3" cy="182.7" rx="11.7" ry="10.5"/>
				<ellipse class="st7" cx="354.1" cy="182.7" rx="11.7" ry="10.5"/>
			</g>
			<path class="st2" d="M353.6,204.6c-3.1-8-11.3-25.1-44.6-24.4c-48.1,1-46.3,20.7-50.2,28.2c-19.2-12.9-28.5-30.2-28.5-30.2
				s16.7,74.7,78.7,73.3c62-1.3,70-83.3,70-83.3C373.6,185,364,196.6,353.6,204.6z M279,218.3c-4.8-5.2-5.9-12.2-0.6-20.6
				c5.9-9.2,19.4-10.2,29.2-10.2c13.3,0,38.7,3.9,32.2,22.4C331.9,232.7,292,232.4,279,218.3z"/>
			<path class="st8" d="M314.8,153.3c0,0,4.6,31.5-18.3,26.2c0,0,14.7,5.8,19.8-3C322,166.7,314.8,153.3,314.8,153.3z"/>
		</g>
	</g>
	<path class="st9" d="M352.3,246.2c0,0-14,19.7-41.3,20.3c-27.3,0.7-44-20-44-20c-52.7,2-93.2,129.5-81.8,162.8
		c13.7,39.8,66.4,29.5,65.8,30.2c-2.7,2.7,141.3,0,141.3,0l16.7-134.3C403.6,245.8,352.3,246.2,352.3,246.2z"/>
	<path class="st10" d="M266.9,244.5c0,0,18.8,20.9,44,20c28.7-1,39.3-20.3,39.3-20.3l9.7,2.2c0,0-17,28.8-48.7,28.2
		c-37-0.8-53.7-26.3-53.7-26.3L266.9,244.5z"/>
	<polygon class="st11" points="381.3,352.5 239.3,352.5 245.3,303.5 374.3,303.5 	"/>
	<g>
		<path class="st12" d="M250.9,439.3h141.3c0,0-5,164-30,243h-33c0,0,0-153,0-198h-13l-2,198h-31
			C283.3,682.3,235.6,476.3,250.9,439.3z"/>
		<g>
			<path class="st13" d="M324.3,694.8c0,0-11.3-32.3,23.3-32.3c36.4,0,26.3,33.4,26.3,33.4L324.3,694.8z"/>
			<path class="st2" d="M374.4,699c0.4-1.6,0.8-4,0.7-7.2h-52.5c0.2,3,0.7,5.6,1.1,7.2H374.4z"/>
		</g>
		<g>
			<path class="st13" d="M268.7,692.9c0,0-11.3-32.3,23.3-32.3c36.4,0,26.3,33.4,26.3,33.4L268.7,692.9z"/>
			<path class="st2" d="M318.3,699c0.2-0.5,1.3-3.8,1.3-9H267c0.3,4.8,1.5,8.6,1.7,9H318.3z"/>
		</g>
	</g>
</g>
<g>
	<g>
		<path class="st14" d="M218.9,625.2c0,0,1.3,36.7,6,50.7h15.3c0,0,4.7-40,5-48.3L218.9,625.2z"/>
		<path class="st14" d="M287.3,624.5c0,0-1.3,36.7-6,50.7h-15.3c0,0-4.7-40-5-48.3L287.3,624.5z"/>
		<g>
			<path class="st15" d="M221.9,666.5c0.6,3.5,1.3,6.4,2.1,8.6l0.2,0.7h16.9l0.1-0.9c0,0,0.4-3.4,1-8.4H221.9z"/>
			<path class="st15" d="M264.1,666.5c0.5,4.7,0.9,7.8,0.9,7.8l0.1,0.9H282l0.2-0.7c0.7-2.1,1.3-4.8,2-8H264.1z"/>
		</g>
		<path class="st16" d="M210.9,551.5c0,0,2,60.3,4.7,85h31.7l3-70.3l4-0.3l6,70l30.3-0.3l-0.3-84
			C290.3,551.5,222.3,550.2,210.9,551.5z"/>
		<path class="st1" d="M195.8,458.5c0,0-12.5,67,17,81l5-68.5L195.8,458.5z"/>
		<path class="st1" d="M302.6,459.5c0,0,12.5,67-17,81l-5-68.5L302.6,459.5z"/>
		<g>
			<path class="st1" d="M265.3,409.5h-32.2c1.7,17-5.4,22.3-17.7,24c2.6,14.5,18.9,13.8,32.9,13.2c0.3,0,0.6,0,0.9,0
				c0.3,0,0.6,0,0.9,0c14,0.7,32.3,3.3,34.9-11.2C265.8,432,263.8,426.5,265.3,409.5z"/>
			<g>
				<g>
					<path class="st1" d="M191.7,359.8c0-0.6,0.1-1-0.1-1.5c-19.4-7.8-17.9,23.7,1.7,21.7L191.7,359.8z"/>
					<path class="st1" d="M300.7,359.8c0-0.6-0.1-1,0.1-1.5c19.4-7.8,17.9,23.7-1.7,21.7L300.7,359.8z"/>
				</g>
				<ellipse class="st17" cx="246.2" cy="367.2" rx="57.3" ry="50.2"/>
				<g>
					<g>
						<g>
							<ellipse cx="218.9" cy="367.4" rx="5.2" ry="7.3"/>
							<ellipse class="st3" cx="218.1" cy="365.6" rx="2.9" ry="2.3"/>
						</g>
						<g>
							<ellipse cx="273.5" cy="367.4" rx="5.2" ry="7.3"/>
							<ellipse class="st3" cx="272.7" cy="365.6" rx="2.9" ry="2.3"/>
						</g>
					</g>
					<g>
						<path class="st2" d="M210.5,361.8c0,0,3.3-8.5,13.9-3.8l-0.3-4.6C224.1,353.3,210.2,349.7,210.5,361.8z"/>
						<path class="st2" d="M282,361.8c0,0-3.3-8.5-13.9-3.8l0.3-4.6C268.3,353.3,282.2,349.7,282,361.8z"/>
					</g>
				</g>
				<g>
					<path class="st4" d="M228.3,388.5c0,0,20.1,10.4,39.2-1.1C267.5,387.4,252.3,427.6,228.3,388.5z"/>
					<path class="st5" d="M228.3,388.5c0,0,21.8,9.6,39.2-1.6C267.5,386.9,252.1,409,228.3,388.5z"/>
					<path class="st6" d="M238.1,400.8c0,0,7.1-1.6,22-1.4C260.1,399.4,251.1,411.7,238.1,400.8z"/>
				</g>
				<g>
					<ellipse class="st7" cx="211.5" cy="383.4" rx="8.7" ry="7.8"/>
					<ellipse class="st7" cx="282.8" cy="383.4" rx="8.7" ry="7.8"/>
				</g>
			</g>
			<path class="st18" d="M250.6,362.4c0,0,5.6,23.8-12.2,19.7c0,0,11.3,5,15.3-1.8C258.2,372.7,250.6,362.4,250.6,362.4z"/>
			<path class="st19" d="M254.9,294.5c1.4-2.5,1.9-5.1-0.7-6.9c-2.3-1.6-8.7,1.7-10.3,3.2c5.5-4.8,6.4-13.7-2.8-10.3
				c-6.4,2.4-10.7,10-15.1,14.8c-56.7,9.8-36.3,62.8-36.3,62.8s4-2,16-23.3c0,0,70.7,13.3,94.3,13.3
				C299.9,348.2,301.9,300.7,254.9,294.5z"/>
		</g>
		<path class="st20" d="M305.3,471c0,0-1.5-31-28.5-40.5c0,0-4.4,16.2-27.3,16.2c-22.8,0-27.3-16.2-27.3-16.2
			C195.8,441,191.8,471,191.8,471l21.2,10.1c-3.4,30.2-4.2,70.4-4.2,70.4h40.5h0.5h40.5c0,0-0.8-40.2-4.2-70.4L305.3,471z"/>
		<path class="st21" d="M222.3,430.5c0,0-3,18,28,17.2c27.5-0.7,26.5-17.2,26.5-17.2l-7.5-1.5c0,0,0.1,11.5-19,12
			c-20.5,0.5-22.5-13-22.5-13L222.3,430.5z"/>
		<polygon class="st21" points="286.1,481.1 305.3,471 307.3,477.5 286.8,488 		"/>
		<polygon class="st21" points="213,481.1 191.8,471 191.3,478 211.8,488 		"/>
		<rect x="212.9" y="629.5" class="st22" width="35.3" height="12"/>
		<rect x="258.3" y="629.5" class="st22" width="35.3" height="12"/>
		<g>
			<path class="st23" d="M215.6,695.2c0,0-7.4-21.3,15.3-21.3c24,0,17.3,22,17.3,22L215.6,695.2z"/>
			<path class="st24" d="M248.5,699c0.3-1.1,0.6-3.3,0.6-5.8h-34.6c0.2,2.8,0.8,5.1,1,5.8H248.5z"/>
		</g>
		<g>
			<path class="st23" d="M256.9,695.2c0,0-7.4-21.3,15.3-21.3c24,0,17.3,22,17.3,22L256.9,695.2z"/>
			<path class="st24" d="M289.8,699c0.3-1.1,0.6-3.3,0.6-5.8h-34.6c0.2,2.8,0.8,5.1,1,5.8H289.8z"/>
		</g>
	</g>
	<path class="st1" d="M198.1,464.7c8.6,6.7,19.9,8.3,26.5-2.8c2.4-4.1,2.7-9.9,2.7-14.7c0-2.3-0.9-5.4-0.7-7.3
		c0.4-4.1,2.9-4.7,3.5-8c2.9-14.4-41.9-3.8-43.3,10.8C186.1,450.5,191.2,459.3,198.1,464.7z"/>
</g>
<g>
	<g>
		<g>
			<path class="st25" d="M494.5,679.7l-11.1-20.2l4.3-125l-46.2-8.7c1,3.8,11.5,78.9,20.2,133.7l-8.7,20.2H494.5z"/>
			<path class="st26" d="M497.9,699c1-7.4,1.4-26.5-21.7-26.9c-30.4-0.5-28,19.3-25.9,26.9H497.9z"/>
		</g>
		<g>
			<path class="st25" d="M508.2,679.7l11.1-20.2l-7.2-125l46.2-8.7c-1,3.8-8.7,78.9-17.3,133.7l8.7,20.2H508.2z"/>
			<path class="st26" d="M552.3,699c2-8.2,4.7-30.7-25.8-26.9c-21.9,2.8-22.4,19.9-21.6,26.9H552.3z"/>
		</g>
	</g>
	<path class="st26" d="M441.3,432.5l98-13c0,0,70,60,81,188l-243,5C377.3,612.5,388.3,463.5,441.3,432.5z"/>
	<path class="st27" d="M411.6,306.8c0,0,99.3,38,152.7-56c0,0-35.3-11.3-41.3-47.3s-47.5-103.6-116.7-74
		c-65.3,28-56.7,104-26.7,136.7C409.6,298.8,411.6,306.8,411.6,306.8z"/>
	<path class="st1" d="M489.1,278.6c-7.2,0.3-2.3-6.5-13-25.6l-36.9,4.4c0,0,18.9,24.7,6,30.6c-12.9,5.9-43.6,8.7-49.3,26.8
		L542.9,296C542.9,296,532.5,276.5,489.1,278.6z"/>
	<path class="st28" d="M420.3,295.5c0,0,55,16,89-15l16,145l-93.5,11.3L420.3,295.5z"/>
	<g>
		<path class="st1" d="M371.1,223.1c-0.3-0.7-0.4-1.3-0.9-1.9c-28.1-0.1-10.4,38.4,13,26.2L371.1,223.1z"/>
		<path class="st1" d="M495.8,169.7c-0.2-0.7-0.6-1.2-0.7-2c20.3-19.5,34.1,20.6,8.7,27.9L495.8,169.7z"/>
	</g>
	<path class="st17" d="M512.8,200.5c3.2,36.2-26.8,68.5-68.2,72.1c-41.3,3.6-77.4-22.9-80.6-59.1c-3.2-36.2,27.8-68.5,69.2-72.1
		C474.6,137.8,509.7,164.2,512.8,200.5z"/>
	<g>
		<g>
			<g>
				<ellipse transform="matrix(0.9156 -0.4021 0.4021 0.9156 -55.8931 183.3957)" cx="408.9" cy="224.8" rx="7" ry="9.7"/>
				
					<ellipse transform="matrix(0.9156 -0.4021 0.4021 0.9156 -55.3296 182.4758)" class="st3" cx="407" cy="223" rx="3.8" ry="3.1"/>
			</g>
			<g>
				<ellipse transform="matrix(0.9156 -0.4022 0.4022 0.9156 -38.7213 206.3215)" cx="472" cy="195.4" rx="7" ry="9.7"/>
				
					<ellipse transform="matrix(0.9156 -0.4021 0.4021 0.9156 -38.1573 205.3607)" class="st3" cx="470.1" cy="193.6" rx="3.8" ry="3.1"/>
			</g>
		</g>
		<g>
			<path class="st27" d="M392.5,219.5c0,0-0.5-12.2,15-12.2l-2.8-5.6C404.7,201.7,385.7,204.9,392.5,219.5z"/>
			<path class="st27" d="M480.3,180.9c0,0-8.6-8.6-19.2,2.8l-2.2-5.8C459,177.9,474.2,166,480.3,180.9z"/>
		</g>
	</g>
	<g>
		<path class="st4" d="M426.2,244.5c0,0,33.1,1.4,53.6-23.7C479.8,220.8,479.3,279.2,426.2,244.5z"/>
		<path class="st5" d="M426.2,244.5c0,0,35-0.6,53.4-24.4C479.5,220.1,469.5,256.4,426.2,244.5z"/>
		<path class="st6" d="M445,254.1c0,0,10-6.1,30.8-14.3C475.8,239.9,468.5,260.3,445,254.1z"/>
	</g>
	<g>
		
			<ellipse transform="matrix(0.8869 -0.462 0.462 0.8869 -69.1373 218.4802)" class="st7" cx="411.6" cy="250.4" rx="11.7" ry="10.5"/>
		
			<ellipse transform="matrix(0.8869 -0.462 0.462 0.8869 -39.0945 252.713)" class="st7" cx="496.5" cy="206.2" rx="11.7" ry="10.5"/>
	</g>
	<path class="st18" d="M445.4,202.4c0,0,13.3,19.9-5.2,23.7c0,0,13.2,0.7,14-7.4C455.1,209.6,445.4,202.4,445.4,202.4z"/>
	<path class="st29" d="M364.2,222.2c0,0,42.4-10,59.8-49.7c0,0,32.3,11,76.2-4.8c0,0-26.5-58.9-91.9-31.9
		C349.6,160.1,364.2,222.2,364.2,222.2z"/>
	<path class="st30" d="M430.3,291.5l27,142l-42,7C415.3,440.5,344.3,305.5,430.3,291.5z"/>
	<circle class="st28" cx="516.3" cy="189.2" r="6.3"/>
	<path class="st30" d="M504.3,278.5l14,151l28-3l-10-140C536.3,286.5,520.9,281.1,504.3,278.5z"/>
	<path class="st31" d="M573.9,428.6c-9.1,2.3-22.9,39.2-7.6,45c13.1,5,31.1-30.9,31-40L573.9,428.6z"/>
	<path class="st32" d="M536.3,286.5c0,0,63,54,64,148l-31.1-5.9l-28.9-82.1L536.3,286.5z"/>
	<path class="st32" d="M404.4,303.6l36,135l-19.5,19.5C420.9,458.1,360.9,338.1,404.4,303.6z"/>
	<circle class="st28" cx="374.9" cy="251.5" r="6.3"/>
</g>
<g>
	<path class="st1" d="M88.3,503.9c0,0-10.9,25.3-4,33c9,10,24,20,24,20l6-49L88.3,503.9z"/>
	<path class="st1" d="M185.2,503.7c0,0-0.9,26.2-0.9,38.2s1,43-11,51s-3.2-82.1-3.2-82.1L185.2,503.7z"/>
	<g>
		<g>
			<path class="st14" d="M112.9,623.6c0,0,1.1,41.3,5.1,53.2h13.1c0,0,2-49.1,2.3-56.2L112.9,623.6z"/>
			<path class="st14" d="M171.2,620c0,0-1.1,44.3-5.1,56.2H153c0,0-4-50.1-4.3-57.2L171.2,620z"/>
			<g>
				<path class="st15" d="M115.5,668.8c0.5,3,1.1,5.5,1.8,7.4l0.2,0.6h14.4l0.1-0.8c0,0,0.3-2.9,0.8-7.2H115.5z"/>
				<path class="st15" d="M151.4,668.8c0.5,4,0.8,6.6,0.8,6.6l0.1,0.8h14.4l0.2-0.6c0.6-1.8,1.1-4,1.7-6.8H151.4z"/>
			</g>
			<path class="st13" d="M106.1,570.8c0,0,1.7,33.4,4,54.5h27l2.6-42l3.4-0.3l3.1,41.7l27.9-0.3l-0.3-53.6
				C173.7,570.8,115.8,569.6,106.1,570.8z"/>
			<g>
				<path class="st1" d="M152.4,449.8H125c1.4,14.5-4.6,19-15.1,20.5c2.2,12.4,16.1,11.8,28,11.2c0.3,0,0.5,0,0.8,0
					c0.3,0,0.5,0,0.8,0c11.9,0.6,27.5,2.9,29.7-9.5C152.8,468.9,151.2,464.2,152.4,449.8z"/>
				<g>
					<g>
						<path class="st1" d="M81.9,410.4c-0.1-0.5-0.1-0.9-0.3-1.4c-19.1-4.7-13.5,24.4,4.5,20L81.9,410.4z"/>
						<path class="st1" d="M183.3,396.1c0-0.5-0.2-0.9-0.1-1.4c17.1-9.8,19.7,19.7,1.2,20.5L183.3,396.1z"/>
					</g>
					
						<ellipse transform="matrix(0.9902 -0.1398 0.1398 0.9902 -56.0374 22.7093)" class="st17" cx="133.6" cy="410.1" rx="53.9" ry="47.2"/>
					<g>
						<g>
							<g>
								<path d="M113,413.2c0.5,3.7-1.2,7.1-3.9,7.4c-2.7,0.4-5.3-2.3-5.8-6.1c-0.5-3.7,1.2-7.1,3.9-7.4
									C109.9,406.8,112.5,409.5,113,413.2z"/>
								
									<ellipse transform="matrix(0.9902 -0.1399 0.1399 0.9902 -56.6216 19.0578)" class="st3" cx="107.3" cy="412.3" rx="2.7" ry="2.2"/>
							</g>
							<g>
								<path d="M163.8,406c0.5,3.7-1.2,7.1-3.9,7.4c-2.7,0.4-5.3-2.3-5.8-6.1c-0.5-3.7,1.2-7.1,3.9-7.4
									C160.7,399.6,163.3,402.3,163.8,406z"/>
								
									<ellipse transform="matrix(0.9902 -0.1399 0.1399 0.9902 -55.1383 26.1046)" class="st3" cx="158.1" cy="405.1" rx="2.7" ry="2.2"/>
							</g>
						</g>
						<g>
							<path class="st29" d="M99.6,403.8c0,0,1.9-8.3,12.5-5.4l-0.9-4.3C111.2,394.1,97.8,392.6,99.6,403.8z"/>
							<path class="st29" d="M166.1,394.4c0,0-4.2-7.4-13.5-1.7l-0.4-4.4C152.3,388.3,164.8,383.2,166.1,394.4z"/>
						</g>
					</g>
					<g>
						<path class="st4" d="M119.7,432.3c0,0,20,7,36.3-6.2C156.1,426.2,147.2,465.5,119.7,432.3z"/>
						<path class="st5" d="M119.7,432.3c0,0,21.5,6,36.2-6.7C156,425.7,144.5,448.2,119.7,432.3z"/>
						<path class="st6" d="M130.5,442.5c0,0,6.4-2.5,20.3-4.2C150.8,438.3,144,450.9,130.5,442.5z"/>
					</g>
					<g>
						
							<ellipse transform="matrix(0.9902 -0.1398 0.1398 0.9902 -59.1796 19.233)" class="st7" cx="107.3" cy="430.9" rx="8.2" ry="7.3"/>
						
							<ellipse transform="matrix(0.9902 -0.1398 0.1398 0.9902 -57.5058 27.4154)" class="st7" cx="166.3" cy="422.9" rx="8.2" ry="7.4"/>
					</g>
				</g>
				<path class="st18" d="M137,405.1c0,0,8.3,21.4-8.7,19.9c0,0,11.2,3.2,14-3.6C145.4,413.7,137,405.1,137,405.1z"/>
			</g>
			<path class="st33" d="M186.5,502.2c0,0-1.3-26.4-24.3-34.5c0,0-3.8,13.8-23.2,13.8c-19.4,0-23.2-13.8-23.2-13.8
				c-22.6,9-31,34.5-31,34.5l23.1,8.6c-2.9,25.8-3.6,60-3.6,60h34.5h0.4h34.5c0,0-0.7-34.3-3.6-60L186.5,502.2z"/>
			<path class="st34" d="M115.8,467.6c0,0-2.6,15.3,23.9,14.7c23.4-0.6,22.6-14.7,22.6-14.7l-6.4-1.3c0,0,0.1,9.8-16.2,10.2
				c-17.5,0.4-19.2-11.1-19.2-11.1L115.8,467.6z"/>
			<polygon class="st34" points="170.1,510.8 186.5,502.2 188.2,507.7 170.7,516.7 			"/>
			<polygon class="st34" points="107.8,510.8 84.8,502.2 84.3,508.1 106.8,516.7 			"/>
			<g>
				<path class="st20" d="M110.1,693.2c0,0-6.3-18.2,13.1-18.2c20.5,0,14.8,18.8,14.8,18.8L110.1,693.2z"/>
				<path class="st21" d="M138.5,694.3c0.1-0.8,0.2-1.8,0.2-2.8h-29.5c0.1,1,0.2,2,0.4,2.8H138.5z"/>
			</g>
			<g>
				<path class="st20" d="M147.3,693.2c0,0-6.3-18.2,13.1-18.2c20.5,0,14.8,18.8,14.8,18.8L147.3,693.2z"/>
				<path class="st21" d="M175.7,694.3c0.1-0.8,0.2-1.8,0.2-2.8h-29.5c0.1,1,0.2,2,0.4,2.8H175.7z"/>
			</g>
		</g>
		<path class="st29" d="M171.5,349.7c-9.6-25.9-42.6-20.5-62.2-11c-10.6,5.2-21.3,11.7-28.9,20.8c-1.3,1.5-17.1,32-5.3,27.2
			c-13.4,5.4-0.9,31,5.2,21.2c0.5-8,4.4-18.9,11-23c8.2-5,95.4-8.1,94,8.6C205.3,358.9,170.7,349.7,171.5,349.7z"/>
	</g>
	<path class="st17" d="M182.3,469.9c-4.1-3.9-22.8-15.3-26.8-9.8c-6.4,8.8,2.1,32.5,13.9,29.5C180.3,486.8,190.7,478,182.3,469.9z"
		/>
</g>
<g>
	<g>
		<g>
			<path class="st1" d="M424.3,686.5l-7.7-14l3-86.7l-32-6c0.7,2.7,8,54.7,14,92.7l-6,14H424.3z"/>
			<path class="st35" d="M427.5,699c2-6,4.3-19.1-15.8-19.1S392.1,693,393.5,699H427.5z"/>
		</g>
		<g>
			<path class="st1" d="M433.7,686.5l7.7-14l-5-86.7l32-6c-0.7,2.7-6,54.7-12,92.7l6,14H433.7z"/>
			<path class="st35" d="M464.6,699c1.3-6,1.9-19.1-18.2-19.1c-20.1,0-17.9,13.1-15.8,19.1H464.6z"/>
		</g>
		<path class="st36" d="M377.9,577.2l1,24.7c0,0,55.3,3.7,98-5.3l-1.7-22L377.9,577.2z"/>
		<path class="st17" d="M406.9,438.2c0,0-24.7-14-34,55.3c0,0-14,64.7,6,75.3C398.9,579.5,406.9,438.2,406.9,438.2z"/>
		<path class="st17" d="M441.8,438.2c0,0,24.7-14,34,55.3c0,0,14,64.7-6,75.3S441.8,438.2,441.8,438.2z"/>
		<path class="st35" d="M460.9,493.8l-74,0.7c0,0-21.3,54.7-12.7,94.7c0,0,56.7-8.7,107.3-4C481.6,585.2,478.9,529.2,460.9,493.8z"
			/>
		<path class="st13" d="M366.9,360.5c0,0-57.3-6.7-28.7,47.3c22.4,42.1-7.3,30-7.3,30s39.3,28,45.3-26.7S366.9,360.5,366.9,360.5z"
			/>
		<path class="st13" d="M465.6,360.5c0,0,57.3-6.7,28.7,47.3c-22.4,42.1,7.3,28,7.3,28s-39.3,30-45.3-24.7
			C450.3,356.5,465.6,360.5,465.6,360.5z"/>
		<path class="st35" d="M362.4,357.9c-17.4,3.4-2.9,24.6-2.9,24.6l5.3,0.8C379.4,359.8,373.6,355.7,362.4,357.9z"/>
		<path class="st35" d="M477.2,358.4c16.7,6.1-1,24.8-1,24.8l-5.3,0C460.1,357.6,466.5,354.5,477.2,358.4z"/>
		<path class="st35" d="M447.7,437.8l-24.4,1.3l-24.4-1.3c0,0-13.3,36-11.3,46c0,0,24.3,2.7,35.7,2c11.4,0.7,35.7-2,35.7-2
			C461.1,473.8,447.7,437.8,447.7,437.8z"/>
		<path class="st5" d="M445.7,433.2l-21.9,6l-21.9-6c0,0-14.7,13.3,2,19.3c14.8,5.3,19.1-9.4,19.9-12.7c0.8,3.3,5,18,19.9,12.7
			C460.3,446.5,445.7,433.2,445.7,433.2z"/>
		<path class="st13" d="M420.6,317.2c-66-2.7-55,49.3-55,49.3l106.7,1.3C472.3,367.8,486.6,319.8,420.6,317.2z"/>
		<g>
			<g>
				<path class="st1" d="M367.3,383.1c0-0.6,0.1-1-0.1-1.6c-19.8-8-18.3,24.1,1.7,22.2L367.3,383.1z"/>
				<path class="st1" d="M470.3,381c0.1-0.6-0.1-1,0.1-1.6c19.8-7.9,18.1,24.2-1.8,22.2L470.3,381z"/>
			</g>
			<path class="st17" d="M473.6,407.5c-8.1,26.4-38.4,40.6-68.5,31.4c-30.1-9.2-48-38.1-39.9-64.5c8.1-26.4,39.1-40.3,69.2-31.1
				C464.5,352.5,481.7,381.1,473.6,407.5z"/>
			<g>
				<g>
					<g>
						
							<ellipse transform="matrix(0.9996 -2.983464e-002 2.983464e-002 0.9996 -11.6137 11.9151)" cx="393.5" cy="395.1" rx="5.3" ry="7.4"/>
						
							<ellipse transform="matrix(0.9996 -2.989029e-002 2.989029e-002 0.9996 -11.5809 11.9115)" class="st3" cx="392.6" cy="393.3" rx="2.9" ry="2.4"/>
					</g>
					<g>
						
							<ellipse transform="matrix(0.9995 -3.011013e-002 3.011013e-002 0.9995 -11.6109 13.6154)" cx="446.3" cy="392.3" rx="5.3" ry="7.4"/>
						
							<ellipse transform="matrix(0.9996 -2.990490e-002 2.990490e-002 0.9996 -11.479 13.4952)" class="st3" cx="445.4" cy="390.5" rx="2.9" ry="2.4"/>
					</g>
				</g>
				<g>
					<path class="st27" d="M383.4,386.7c0,0,3.1-8.7,14.1-4.3l-0.4-4.7C397.1,377.7,382.8,374.5,383.4,386.7z"/>
					<path class="st27" d="M456.3,384.5c0,0-3.6-8.5-14.3-3.5l0.1-4.7C442.1,376.3,456.2,372.3,456.3,384.5z"/>
				</g>
			</g>
			<g>
				<path class="st4" d="M400.1,413.9c0,0,22.9,10.4,44.5-1.4C444.6,412.5,427.6,453.5,400.1,413.9z"/>
				<path class="st5" d="M400.1,413.9c0,0,24.8,9.6,44.5-2C444.6,411.9,427.2,434.6,400.1,413.9z"/>
				<path class="st6" d="M411.3,426.3c0,0,8.1-1.7,25-1.6C436.3,424.8,426.1,437.4,411.3,426.3z"/>
			</g>
			<g>
				
					<ellipse transform="matrix(0.9954 -9.629728e-002 9.629728e-002 0.9954 -38.0543 39.293)" class="st7" cx="388.1" cy="413.9" rx="8.9" ry="8"/>
				
					<ellipse transform="matrix(0.9954 -9.618600e-002 9.618600e-002 0.9954 -37.0036 46.1738)" class="st7" cx="460.4" cy="406.9" rx="8.9" ry="8"/>
			</g>
			<path class="st18" d="M425.5,389.7c0,0,3.7,17.8-10.4,15.2c0,0,9.1,4.3,12-1.2C430.3,397.6,425.5,389.7,425.5,389.7z"/>
			<path class="st2" d="M362.7,380.5c0,0,75.9-1,111.2,0.3c0,0,5-49-55.6-51.6C362.3,326.9,362.7,380.5,362.7,380.5z"/>
		</g>
		<path class="st37" d="M394.3,495.8c0,0-17.3,56-6,56c11.3,0,13.3-56.7,13.3-56.7L394.3,495.8z"/>
		<path class="st37" d="M410.9,497.2c0,0-8.7,33.3,1.3,32.7s5.3-32.7,5.3-32.7H410.9z"/>
		<path class="st37" d="M430.3,497.5c0,0,6,55,15.3,54.3c9.3-0.7-8.7-54.7-8.7-54.7L430.3,497.5z"/>
		<path class="st37" d="M447.6,495.2l7.3-1.3c0,0,14.7,34.7,9.3,37.3C458.9,533.8,447.6,495.2,447.6,495.2z"/>
		<path class="st36" d="M387.6,483.8c0,0,40,2,71.5-1l1.9,11c0,0-27.7,3.3-37,3.3c-9.3,0.1-37-2.7-37-2.7L387.6,483.8z"/>
		<ellipse class="st5" cx="423.5" cy="458.2" rx="5.6" ry="4.9"/>
		<ellipse class="st5" cx="424.2" cy="473.5" rx="5.6" ry="4.9"/>
	</g>
	<path class="st17" d="M399.2,436.5c-8.1-6.5-24.1-5.3-29.8,3c-6.4,9.4,4.9,14.5,11.8,17.7c9.4,4.4,24.8-0.3,22.6-12.9
		C403.3,441,401.6,438.5,399.2,436.5z"/>
</g>
</svg>
