<?xml version="1.0" encoding="utf-8"?>
<!-- Generator: Adobe Illustrator 19.0.0, SVG Export Plug-In . SVG Version: 6.00 Build 0)  -->
<svg version="1.1" id="Objects" xmlns="http://www.w3.org/2000/svg" xmlns:xlink="http://www.w3.org/1999/xlink" x="0px" y="0px"
	 viewBox="0 0 800 800" style="enable-background:new 0 0 800 800;" xml:space="preserve">
<style type="text/css">
	.st0{fill:#294360;}
	.st1{fill:#FFCD9F;}
	.st2{fill:#AC6C82;}
	.st3{fill:#6991AC;}
	.st4{fill:#E2A879;}
	.st5{fill:#735360;}
	.st6{fill:#3E3947;}
	.st7{fill:#FDF5ED;}
	.st8{fill:#9E005D;}
	.st9{fill:#DA727E;}
	.st10{fill:#EDF9FD;}
	.st11{fill:#67727A;}
	.st12{fill:#DDDDDD;}
	.st13{fill:#455C7B;}
	.st14{fill:#4A7891;}
	.st15{fill:#EFB789;}
	.st16{fill:#A75265;}
	.st17{fill:#E5A576;}
	.st18{fill:#AF224E;}
	.st19{fill:#6D0323;}
	.st20{fill:#F1B0B0;}
	.st21{fill:#E1F8FF;}
	.st22{fill:#FFFFFF;}
</style>
<path class="st0" d="M368.6,448.7c0,0-8.7,5-15,15s-15.6,52.1-3.3,56.5s22.4-5.3,22.4-5.3l3.7-22.8l3-15.7L368.6,448.7z"/>
<g>
	<path class="st1" d="M389.3,536.9l-14.3-1.8l-3.2,30.6c0,0,7.2,2.9,13.4,1.9L389.3,536.9z"/>
	<path class="st1" d="M433.2,539.1l3,28.2c0,0,8,4.5,13.1-0.8l-2.8-29.4C446.5,537.2,436.6,535.3,433.2,539.1z"/>
	<path class="st2" d="M371.8,472.1l-8.2,56.7c0,0,4.2,7.6,19.4,9.6c15.2,2,20.8-6.4,20.8-6.4l5.3-39.8l6,39.4c0,0,6.2,9.8,24.8,7.2
		c19-2.8,15.8-12.5,15.8-12.5l-7.8-50.5l-28.8-6.4h-18.2L371.8,472.1z"/>
	<path class="st1" d="M358.9,410.9c0,0-9.7,42.7-10.3,65.5c0,0-6.2,20.8-3.4,30.6c2.8,9.8,6.5,3,6.5,3s1.4,2,3.1,1.8
		c1.7-0.2,2.3-1.9,2.3-1.9s1.3,1.9,3.5,1.1c2.2-0.8,2.3-3,2.3-3s2.3,1,3.7,0.2c1.3-0.8,1-4.3,0-6.4c-1-2.1-2.1-5.5-2.1-6.6
		c0-1.1,2.5-14.2,0.1-18.7c-2.4-4.5-3.2-5.5-3.1-7.3c0.1-1.8,6.8-44.9,10.8-52.4c4.1-7.4-3.6-5.5-3.6-5.5l-5.1-1.2L358.9,410.9z"/>
	<path class="st1" d="M460.7,485.3c0,0,9-11.6,11-29.6c2-18-8.8-41.7-8.5-41.9c0.3-0.2-11.7-3.6-11.7-3.6l-1.2,6.3
		c0,0,6.6,19.5,8.2,34.8c1.6,15.2-7.4,26.8-7.4,26.8h-2.8c0,0-4.6,2.6-7,10.2c-2.4,7.6,0.2,8.2,2.4,7c0,0-1.4,7.8,2.2,6.6
		c0,0,0.4,4.9,3.6,5c0,0,1,2.4,3.3,2.2c2.3-0.2,5.3-4,4.9-12.2"/>
	<path class="st3" d="M440.8,406.6l8.3,70.1c0,0-39.6,20.4-80.5-4.8c0,0,4.4-41.6,4.8-54.9c0,0-11.2-0.4-16.8-8.8l12.8-39.2
		l31.8-12.1h20l27.9,11c0,0,18.8,33,21.2,36.6c0,0-3,15.3-25.2,11.4L440.8,406.6z"/>
	<path class="st4" d="M401.3,348v8.9c0,0,9.5,6,20,0V348H405H401.3z"/>
	<path class="st4" d="M470.4,288.2c0,0-1.3-15.9,6.1-16.7c7.4-0.8,5.5,31.7-10.9,34.4L470.4,288.2z"/>
	<path class="st4" d="M350,274.5c0,0-4,1.2-3.4,11.4c0.6,10.2,8.1,16.4,8.1,16.4v-8.4c0,0-0.7-10.8-0.9-11.6
		C353.6,281.5,350,274.5,350,274.5z"/>
	<path class="st1" d="M349.9,271.4c0,0-0.1,79.3,62.8,79.3c53.5,0,59.5-73.9,59.5-73.9s-8.1-38.7-8.1-40.5c0-1.8-15.3-9.9-17.1-10.5
		c-1.8-0.6-45.9,0.3-48.1,0c-2.1-0.3-24.9,4.2-28.5,4.2c-3.6,0-9.6,1.8-10.2,3C359.5,234.2,349.9,271.4,349.9,271.4z"/>
	<path class="st5" d="M470.4,288.2c0,0-3.1,0.9-5.9,0l-6.2-22.1l1.2-3.6c0,0-3.4-18.4-11-24c0,0-16.4,7.8-38.4,7.2
		c-22-0.6-42.4-6.4-42.4-6.4s-5.6,2.4-10.8,18.2v8.8c0,0-5.4,9.4-6.2,13.2c0,0-5-10.8-0.7-35.4l-4.7-3.8l4.7-0.6l-17.1-14l13.8-2.2
		c0,0-13-7.6-16.6-12.6c-3.6-5-8.8-10-8.8-10s42.8-3.4,46.3-4.6c0,0-8.3-8-12.7-15.2c0,0,43.8,8.8,51,11c0,0-9-13.4-12.6-15.6
		c0,0,35.8,13.8,58.3,32.2c0,0-4.2-14.2-5.8-18.4c0,0,21.2,28.8,24.9,39.4C470.4,229.6,482.9,263.4,470.4,288.2z"/>
	<ellipse class="st6" cx="382.4" cy="285.6" rx="4.6" ry="5.8"/>
	<ellipse class="st6" cx="432.7" cy="285.6" rx="4.6" ry="5.8"/>
	<path class="st5" d="M385.6,266.7c0,0-2.5-2.4-5.7-1.8c-3.2,0.6-5.7,4.2-5.7,4.2s0.5-6.9,6.4-7.5c0,0,2.1-0.4,5,1V266.7z"/>
	<path class="st5" d="M426.9,260.6v5.1c0,0,7.4-5.4,13.9,2.3C440.8,268,439.7,256.9,426.9,260.6z"/>
	<path class="st4" d="M398.6,299.2c0,0-5.6,7.1,2.7,12.8c0,0-8.5,0.6-9.5-5.6C390.6,299.5,398.6,299.2,398.6,299.2z"/>
	<path class="st7" d="M389.9,319.1c0,0,0.1,1.8,0.8,4.2c6.2,1.7,24.4,5.5,40.5-1.8c1.5-4.2,1.6-7.8,1.6-7.8
		C416,325.7,389.9,319.1,389.9,319.1z"/>
	<g>
		<path class="st8" d="M390.7,323.3c0.7,2.2,2,4.8,4.3,7.1c2.1-2.1,5.1-3.7,8.3-4.9C397.7,325,393.2,324,390.7,323.3z"/>
		<path class="st9" d="M411.3,335.9c12.4-0.4,17.7-8.2,19.9-14.5c-9.5,4.4-19.8,4.8-27.9,4.1c-3.2,1.2-6.2,2.8-8.3,4.9
			C398.1,333.6,403.1,336.2,411.3,335.9z"/>
	</g>
	<path class="st4" d="M406.9,340.1c0,0,7.3,2.2,11.9-0.4C418.8,339.7,413.9,345.7,406.9,340.1z"/>
	<path class="st10" d="M388.6,566.6c0,0-9.9-5.7-18.7-2.5c0,0-2,0.5-2.3,4.9c-0.3,4.4-0.6,8.8-0.6,8.8s13.9,6.8,16.5,6.1
		c2.6-0.7,5.8-2.3,5.8-2.6c0-0.3,0.4-11,0.4-11S389.8,567.3,388.6,566.6z"/>
	<path class="st10" d="M368.1,608.6c15.2,1.1,21.5-7.7,23.4-10.8v-4.3c0,0.6-11.8,8.1-23,7.6c-11.2-0.5-11.5-4.1-11.5-4.1v6.5
		C356.9,603.5,357.2,607.8,368.1,608.6z"/>
	<g>
		<path class="st11" d="M364.1,579.7c-2.5,3.5-5.9,10.3-7.2,17.3c0,0,0.1,0.5,0.8,1.2c0,0,4.1-15.9,10.7-22.3
			C366.7,576.8,365.2,578.1,364.1,579.7z"/>
		<path class="st11" d="M389.3,576.7l0.1,1.9c0,0-2.2,2.8-5.3,2.2c-1.6-0.3-3.3-1.7-5.1-3.1l0,0c0,0-7.3,7.5-8.5,23.5h0
			c10.5-0.4,20.9-7,20.9-7.6v-15.7C391.4,577.8,390.5,576.8,389.3,576.7z"/>
		<path class="st12" d="M368.4,601.1c-6.9-0.3-9.6-1.8-10.8-2.9l0,0c0,0,0.9,2.8,3.6,3.8c2.6,1,9.3-0.9,9.3-0.9
			C369.8,601.1,369.1,601.1,368.4,601.1z"/>
		<path class="st12" d="M379,577.6L379,577.6c-1.6-1.3-3.2-2.6-4.7-2.9c-1.7-0.4-3.9,0.1-6,1.2c-6.6,6.4-10.7,22.3-10.7,22.3
			c1.1,1.1,3.9,2.6,10.8,2.9c0.7,0,1.4,0,2.1,0h0C371.7,585.1,379,577.6,379,577.6z"/>
	</g>
	<path class="st10" d="M454.7,576c0,0-0.2-6-0.5-7.5c-0.3-1.5-2-3.8-4.9-3.7c-2.9,0.1-11.6-0.1-13.2,0.8c-1.7,0.8-2.1,1.4-2.8,4.3
		s-0.6,9.3-0.6,9.3s2.4,4.8,3,4.7c0.6-0.1,5.7-1,6.3-1.5c0.6-0.5,6-1.7,6.8-2.2c0.8-0.5,4-1.3,4.1-1.6
		C453,578.3,454.7,576,454.7,576z"/>
	<path class="st10" d="M456.1,608.6c8.2-0.5,10.2-4.1,10.2-4.1v-5.6c-0.3,1.4-1.8,3.3-7.3,3.9c-8.6,0.9-23.7-1.1-28.2-8.8
		c0,0,0,0,0-0.1v3.6C435.6,607.1,447.9,609.1,456.1,608.6z"/>
	<path class="st10" d="M459,602.8c5.4-0.5,6.9-2.5,7.3-3.9v-1.5c-0.8-2.6-1.9-5.6-3.2-8.5c-1.3-0.6-4-1.6-7.5-1
		c-5.1,0.9-11.6,3.5-13.4,13.3C447.9,602.9,454.4,603.2,459,602.8z"/>
	<g>
		<path class="st11" d="M441.7,579.1c-1.3,0.9-2.4,1.6-3.4,1.8c-2.9,0.5-5.6-3.3-5.6-3.3l0-2.3c-1.8,0.2-1.9,2.8-1.9,2.8v15.8
			c0,0,0,0,0,0.1c2.1,3.6,6.4,5.9,11.3,7.3c0.9-4.9,2.9-7.9,5.3-9.9c0,0,0,0,0,0C446.4,586.2,442.9,580.8,441.7,579.1z"/>
		<path class="st12" d="M463.1,588.9c-3.4-7.4-8.1-14.4-12.2-14c-3.8,0.3-6.7,2.6-9.1,4.2c1.2,1.7,4.7,7.1,5.8,12.2c0,0,0,0,0,0
			c2.5-2,5.5-2.9,8.1-3.4C459.1,587.3,461.8,588.2,463.1,588.9z"/>
	</g>
	<path class="st13" d="M422.6,357.4c0,0-24.3,57.5-51.1,84.8c0,0-1.2,13-1.5,15.6c0,0,51.5-39,71.7-92.9
		C441.7,365,424.1,358,422.6,357.4z"/>
	<path class="st14" d="M373.4,417c0,0,1.4-27.2,1.5-27.6c0.1-0.4-4.3,27.3-4.3,27.3L373.4,417z"/>
	<path class="st4" d="M346.2,490.2c0,0-1.1,7,2.7,8c3.8,1,3.7-1.2,4.1-4.5c0.4-3.3,1.8-6.1,2.8-7.4c0,0-1.9,5.1-1.8,7.8
		c0.1,2.7-0.9,6.8-5.2,5.9C344.5,499.1,345.2,492.9,346.2,490.2z"/>
	<path class="st10" d="M356.9,597c0,0,0.5-3.1,1.8-6.7c0.1-0.2,0.4-0.7,0.5-0.8c1.5-2,3.9-3.2,7.7-2.9c9.9,0.8,12.1,14.6,12.1,14.6
		S368.7,605,368,605c-0.7,0-10.3-3.7-10.3-3.7L356.9,597z"/>
</g>
<path class="st15" d="M537.8,466.4c0,0-4.7,2.1-7.5,3.8c-3.1,1.9,5.7,7.1,13.5,1.8c9.8-6.7,2.3-8.2,2.3-8.2l-4.6,0.4L537.8,466.4z"
	/>
<path class="st16" d="M583.3,602.1c0,0-2.2,4-4.7,6.4c-2.5,2.4-11.1,7-10.1,13.1c1,6.1,17.8,7.8,27.1,2.1c0,0,4.9-3.9,6.1-6.5
	c1.2-2.6,7-7,7-7s-1.5-8-7-9.9c-5.5-1.9-8.9-1.6-8.9-1.6L583.3,602.1z"/>
<path class="st16" d="M684,579.6c0,0,4.1,4.7,5.6,10.9c1.5,6.2,5.3,13.4,11.9,11.6s11.6-9.2,9.9-17.7c-1.7-8.5-6.2-16.9-7.2-19.3
	c-1-2.4-3.5-5-3.5-5s-5.9-1.6-10.2,2.5c-4.3,4.1-4.1,4.7-4.1,4.7l-1.5,6.3l-3.4,4L684,579.6z"/>
<path class="st1" d="M581,538.9c0,0-1.6,29.8,3.4,53.5c0,0,6.8,3.2,11.2-2.6c0,0-4.5-32.9-4.3-44.9c0.1-12-3.1-8.2-3.1-8.2
	L581,538.9z"/>
<path class="st1" d="M641.3,543.5c0,0,10.6,23,33.4,30c0,0,5.8-1.2,3.6-10c0,0-19.3-4.3-26.1-22.3c-6.7-18-9-2.7-9-2.7L641.3,543.5z
	"/>
<path class="st17" d="M711.8,498.3c0,0,1.5,6.5,2.6,8.9c0,0,0.6,4.5-3.6,3.6c-4.2-0.9-4.2-2.4-4.2-2.4s-5.3-0.2-6.2-4.7
	c-0.9-4.5,1.1-10.4-2.4-12.2c-3.5-1.8-7.4-1.4-8.6,0.6c-1.2,2-2.4-8.1-1.8-8.9c0.6-0.8,2.7-4.2,3.4-5.1c0.7-0.9,13,5,13,5l3.8,8.7
	L711.8,498.3z"/>
<path class="st15" d="M709.9,489.2c0,0,2.8,4.8,5.4,7.5c1.5,1.6-0.5,3.7-3.2,4.2c-2,0.4-4.3-0.2-5.9-2.5c-3.6-5.6-4.1-9.2-4.1-9.2
	s-2.4-6.2-6.8-6.6c-4.4-0.5,0-4.4,0-4.4l5.4,1.4l9,5.9V489.2z"/>
<path class="st18" d="M579.6,294.2c0,0-13.8-2.8-16-15.4c-2.2-12.6,10.5-11,15.8-22.8c5.3-11.8,23.9-55.9,66.5-42
	c0,0,18.6-8,37.2,4.6c18.6,12.6,15.8,43.6,25.4,60.1c9.6,16.4,21.2,18.2,18.8,33.2c-2.4,15-23,24.2-19.2,39
	c3.8,14.8,15.2,14,14.2,34.4c-1,20.4-23.2,22.8-22.6,35c0.6,12.2-2.6,22.8-12.4,24.8c-9.8,2,0-44,0-44s-6.2-15-6.2-15.6
	c0-0.6-13.4-14.6-14.2-14.8c-0.8-0.2-13.4-7-15.2-7c-1.8,0-9.2-2.2-9.2-2.2s-27.6,4.4-29.8,4.8c-2.2,0.4-12.5,9.3-12.5,9.3
	l-17.7,18.2c0,0-8.2-3.4-8-15c0.2-11.6,5.2-9.4-1-19.2c-6.2-9.8,12.8-16,9.4-39c-3.4-23,0.6-19.4,0.6-19.4L579.6,294.2z"/>
<path class="st19" d="M595.4,380.7c0,0,1.3-12.8,10-17.9c8.7-5.1,59.3-19.8,85.7,14.7c0,0,14.2,58.4-24.3,91.9
	c0,0-9.9,10.6-25.4,5.6c-15.5-5-26.9-22.1-26.9-22.1l-4.8-18V427l-9.3-8.7l-4.6-25.2L595.4,380.7z"/>
<path class="st1" d="M677.3,427.9c0,0,10.7,29.7,19.1,44.4c0,0,9.8,8.9,15.6,11c5.9,2.1,3.3,5.1-2.1,5.9c-5.4,0.8-10.8-5.6-10.8-5.6
	s-4.1-1.5-5.6,2.7c-1.5,4.2-3.5,10.7-8.6,11.1c-5.1,0.5-6-3.3-4.8-4.8c1.2-1.5,5.9-6,5.3-9.8c-0.6-3.8-1.2-7.4-0.8-8.4
	c0,0-12.8-32.1-16.1-44.6c-3.3-12.5-1.2-8.4-1.2-8.4l7.2,1.4L677.3,427.9z"/>
<path class="st1" d="M580.1,413.1c0,0-15.9,33.3-31.7,43.1c0,0-6.6,3.2-15.2,3c-8.6-0.2-12.4-3-12.8,2c-0.4,5,7,8.8,13.4,7.2
	c6.4-1.6,8.6-3,9.4-1.6c0.8,1.4,1.2,3,0.6,5.2c-0.6,2.2-1.8,10.4,4.4,10.8c6.2,0.4,1.1-2.6,2-7c1-4.4,4.6-4.4,6.8-7.6
	c2.2-3.2,2-8.4,2.2-9.2c0.2-0.8,21.3-22.6,24.6-33.2c3.4-10.6,6.2-12.7,6.2-12.7l-9.2-5.2L580.1,413.1z"/>
<path class="st5" d="M573,481.2c0,0-6.4,29.5-11,42.9c0,0,15.2,23.8,51.7,24.6c36.4,0.8,60.1-20.2,60.1-20.2s-18.5-21.4-22.3-37.4
	c-3.8-16-23.6-7.1-23.6-7.1s-28.6,3-29.8,2.8c-1.2-0.2-18.2-3.2-19-3.4C578.2,483.3,573,481.2,573,481.2z"/>
<path class="st4" d="M645.5,357.1l-1.7,8.9l-0.2,0.9c0,0-14.6,6.8-17.8,5.4c-3.2-1.4-1.9-4.2-1.9-4.2s2.8-5.6,3.3-8.2
	c0.4-2.6,4-1.6,4.8-2.8c0.8-1.2,7-1.8,8.4-2C641.9,354.9,645.5,357.1,645.5,357.1z"/>
<path class="st1" d="M582.5,273.8c0,0-20.1,76,41.1,88.9c0,0,23.4,0.9,41.7-21.9c18.3-22.8,21.9-51.7,21.9-51.7s-8.7-16.8-11.1-19.2
	c-2.4-2.4-38.1-19.8-39.9-21.6c-1.8-1.8-13.2-4.5-18.6-3.9c-5.4,0.6-15.3,2.7-17.4,4.2c-2.1,1.5-9.3,10.2-9.3,10.2L582.5,273.8z"/>
<path class="st18" d="M577.2,279.4c0,0,19.7-15.2,26.3-32.2c0,0,6,14.3,25,17.1c19,2.8,36.7,12.2,42.4,29.7
	c4.5,13.8,0.9,23.9-4.3,34.1c-5.2,10.2-6.4,13.7,0,22.5c6.4,8.8,5,11,5,11s10.7,4.9,19.3,15.8c0.5,0.6,0.7,3.2,0.7,3.2
	s4.1,0.9,5.1-0.7c1-1.6-1.6-15.6-1.6-17.2c0-1.6,4-56.1,4.6-59.2c0.6-3.1-7.4-25.7-9.8-31.3c-2.4-5.6-10.8-17.6-19-23.6
	c-8.2-6-14.8-9.2-21-10.8c-6.2-1.6-6.8-0.6-12.4-2.6c-5.6-2-42,4.2-42.6,4.8c-0.6,0.6-7.8,7.8-7.8,8.6c0,0.8-6.3,18-7.7,20
	C578,270.6,577.2,279.4,577.2,279.4z"/>
<ellipse transform="matrix(0.9936 0.1133 -0.1133 0.9936 37.6576 -69.9249)" class="st6" cx="633.9" cy="296.3" rx="4.6" ry="5.9"/>
<path class="st6" d="M598.9,294.4c-0.3,3-2.2,5.2-4.2,5c-2-0.2-3.3-2.8-3-5.8c0.3-3,2.2-5.2,4.2-5
	C597.9,288.9,599.3,291.5,598.9,294.4z"/>
<path class="st18" d="M628.6,278c0,0,1.3-3.8,3.4-5.7c0,0,8.4-3.2,11.3,5.7C643.2,278,635.9,272.1,628.6,278z"/>
<path class="st18" d="M601.2,277.8c0,0,0.1-3.5-1.8-6.5c0,0-5.5-1.5-7.5,4.9C591.9,276.3,596.9,271.5,601.2,277.8z"/>
<path class="st4" d="M597.8,306.9c0,0-6.5,5.6,1.4,11.2c0,0-7.1-1.4-7.5-5.3C591.2,309,597.1,306.8,597.8,306.9z"/>
<path class="st4" d="M619,348.5c0,0,8.8,3.1,13.8-2.9C632.8,345.6,629.8,354.6,619,348.5z"/>
<path class="st20" d="M643.9,366c0,0,15.1,8.9,27,11.1c0,0,8.2,28.2,18.6,37.8c0,0-8.6,21.3-31.1,12.9c0,0-1.7-10.4-2.9-12.3
	c0,0-10.7,10.1-11.6,30.3c-1,20.3,6.4,38.6,10.3,43.8c0,0-22.8,13.1-53,6.9c-18.6-3.8-25.6-10.7-28.2-15.5c-1.6-3-1.6-5.1-1.6-5.1
	s13.1-38.1,13.1-59.6c0,0-9.8-5.3-10.2-16.2c0,0,13.4-15.6,16.1-19.6c4.1-6.1,28.9-9.9,34.2-13.5c5.3-3.6,10.1-0.5,10.1-0.5
	L643.9,366z"/>
<path class="st16" d="M649.2,368.9c0,0-10.5,11.4-12.7,40.1c-2.2,28.6,7.3,37.9,7.3,37.9s1.1-14.9,5.2-21.7c0,0-4.2-33.3,9.8-51.8
	C658.9,373.4,650.3,369.5,649.2,368.9z"/>
<path class="st16" d="M598.9,375.6c0,0-12.4,31.2-14.6,46.3l0.2-5.4c0,0,4-29.7,9.5-38.7L598.9,375.6z"/>
<path class="st21" d="M584.6,589.6c0,0-3.5,1.7-1.3,12.5c0,0,5.2-0.6,9.5,1.1c4.3,1.7,8.8-1.4,8.9-1.8c0,0-0.7-13.2-6.4-13.7
	c-5.7-0.5-7.2,0-7.2,0L584.6,589.6z"/>
<path class="st21" d="M672.6,572.9c0,0,2.2,6,11.4,6.7c0,0-0.6-3.4,1.8-5.3c2.4-1.9,7.5-8,4.7-11.7c0,0-6.2-2.9-10.4-2.4
	c-4.2,0.5-5.8,4.9-5.8,4.9L672.6,572.9z"/>
<g>
	<path class="st8" d="M614.9,333.6c-5.2-0.2-9.2-1.4-11.4-2.3c1.2,2.7,3.2,6.2,6.4,8.8C610.9,337.1,613,335,614.9,333.6z"/>
	<path class="st9" d="M614.9,333.6c-1.9,1.4-4,3.5-4.9,6.5c2.7,2.1,6.3,3.6,11,3.5c9.6-0.4,13.1-8.6,14.3-14.6
		C627.6,332.9,620.6,333.9,614.9,333.6z"/>
	<path class="st22" d="M618.5,331.7l17.4-6.6c0.1-1.6,0.1-2.6,0.1-2.6c-15.7,9.3-33.9,4.4-33.9,4.4s0.4,1.9,1.5,4.4
		c2.2,0.9,6.2,2.1,11.4,2.3C616.8,332.3,618.5,331.7,618.5,331.7z"/>
	<path class="st22" d="M618.5,331.7c0,0-1.7,0.6-3.6,1.9c5.7,0.2,12.7-0.7,20.4-4.6c0.3-1.5,0.5-2.8,0.6-3.8L618.5,331.7z"/>
</g>
<ellipse class="st22" cx="374.7" cy="301.4" rx="1.4" ry="1.6"/>
<ellipse class="st22" cx="424.8" cy="301.4" rx="1.4" ry="1.6"/>
<ellipse class="st22" cx="594.3" cy="291.1" rx="1.1" ry="1.4"/>
<ellipse class="st22" cx="632.3" cy="293.3" rx="1.1" ry="1.4"/>
</svg>
