<?xml version="1.0" encoding="utf-8"?>
<!-- Generator: Adobe Illustrator 19.0.0, SVG Export Plug-In . SVG Version: 6.00 Build 0)  -->
<svg version="1.1" id="Objects" xmlns="http://www.w3.org/2000/svg" xmlns:xlink="http://www.w3.org/1999/xlink" x="0px" y="0px"
	 viewBox="0 0 337 406.4" style="enable-background:new 0 0 337 406.4;" xml:space="preserve">
<style type="text/css">
	.st0{opacity:0.6;fill:#E8DBCD;}
	.st1{fill:#084073;}
	.st2{fill:#F1AB89;}
	.st3{fill:#F9C5A0;}
	.st4{fill:#093B60;}
	.st5{fill:#08B7F4;}
	.st6{fill:#17AACC;}
	.st7{fill:#1359A5;}
	.st8{fill:#DDA18A;}
	.st9{fill:#1899B7;}
	.st10{fill:#6D3B29;}
	.st11{fill:#FFFFFF;}
	.st12{fill:#E5E1E1;}
	.st13{fill:#CECECE;}
	.st14{fill:none;stroke:#A0786A;stroke-width:2.8362;stroke-linecap:round;stroke-linejoin:round;stroke-miterlimit:10;}
	.st15{fill:#7A4834;}
	.st16{fill:#4C3826;}
	.st17{fill:#B63411;}
	.st18{fill:#C91B1B;}
	.st19{fill:#AD1515;}
	.st20{fill:none;stroke:#FFFFFF;stroke-width:4.727;stroke-linecap:round;stroke-miterlimit:10;}
	.st21{fill:#2479C6;}
	.st22{fill:#38D5F9;}
	.st23{fill:#F9DFCD;}
	.st24{fill:#A8664F;}
	.st25{fill:#EF5656;}
</style>
<g>
	<ellipse class="st0" cx="177" cy="371" rx="147" ry="27.7"/>
	<path class="st1" d="M248.6,324.6c0,27.8-36.3,36.9-77,36.9s-73.7-22.5-73.7-50.3c0-27.8,33-50.3,73.7-50.3
		S248.6,296.8,248.6,324.6z"/>
	<ellipse class="st2" cx="170.2" cy="209.2" rx="43" ry="32.1"/>
	<path class="st3" d="M336.4,151.2c-1.5-2.3-3.8-1.9-6.3-0.8c-2.5,1.1-7.5,3.5-8.9,4.1c-1.4,0.5-3.4-0.2-4.2-1.7
		c-0.8-1.5,0-3.3,1-4.4c1-1,9.9-10.2,12-12.3c2.1-2.1,2.7-4.4,0.8-6.4c-1.9-2-3.8-1.8-6.4,0.4c-2.6,2.2-11.6,9.7-12.9,10.8
		c-1.3,1.1-3,1.9-4.8,0.5c-1.8-1.4-1.6-3.1-0.8-4.4c0.7-1.3,6.2-9.7,7.7-11.7c1.5-2.1,1.8-4.7-0.4-6.3c-2.2-1.6-4.5-0.4-6.4,1.6
		c-1.9,2-12,14.4-14.7,17.8c-2.7,3.4-6.8,4-8.1,1.8c-1.3-2.2-3.6-6.8-4.9-9.4c-1.4-2.6-4.1-3.6-6.6-2.4c-2.5,1.2-3.2,3.6-2.4,6.6
		c0.8,2.9,3.8,13.5,5.4,17.7c0.4,1,0.3,4.3-2.9,5.3c-3.2,0.9-21,6.3-40.6,20.8c-26.4,19.5,8.6,52.6,23.9,42.3
		c15.2-10.3,34.3-30.8,41.4-40c3.2-4.2,11.2-5.8,16-8.8c7.4-4.6,18.6-13.1,20.9-14.8C336.5,155.5,337.9,153.5,336.4,151.2z"/>
	<path class="st2" d="M275.7,154.3c-0.1,0.8-0.4,1.7-1.1,2.4c-0.8,6.9-4,20.7-15.4,28.2c-15.8,10.4-21.7,8.5-21.7,8.5l20.1,26.3
		c14.9-10.6,32.9-30,39.8-38.9c1.2-1.6,3.1-2.8,5.2-3.9C279.8,175.8,276.2,159.7,275.7,154.3z"/>
	<path class="st3" d="M64.1,157.9c-4-1.5-3.6-5.2-3.3-6.4c0.9-4.4,2.4-15.2,2.8-18.3c0.3-3-0.7-5.4-3.3-6.2
		c-2.6-0.8-5.2,0.6-6.2,3.4c-1,2.8-2.5,7.7-3.5,10c-1,2.4-5.2,2.3-8.3-0.6c-3.1-2.9-15-13.7-17.1-15.5c-2.1-1.8-4.6-2.6-6.5-0.7
		c-1.9,2-1.3,4.5,0.5,6.3c1.8,1.8,8.4,9.3,9.3,10.5c0.9,1.2,1.4,2.8-0.2,4.5c-1.6,1.7-3.5,1.1-4.9,0.2c-1.4-0.9-11.4-7-14.3-8.8
		c-2.9-1.8-4.9-1.7-6.4,0.6c-1.6,2.3-0.6,4.4,1.8,6.2c2.4,1.8,12.5,9.6,13.7,10.4c1.1,0.8,2.2,2.5,1.7,4.2c-0.5,1.6-2.4,2.6-3.9,2.3
		c-1.4-0.3-6.8-2-9.4-2.7c-2.6-0.7-5-0.8-6.1,1.7c-1.2,2.5,0.5,4.3,3,5.7c2.5,1.4,14.8,8.1,22.9,11.6c3.6,1.6,10.2,2.2,13.2,3.8
		c3.1,1.6,26.9,30.5,39.4,37.2c13.6,7.2,17.8-43,17.8-43S75,162,64.1,157.9z"/>
	<path class="st4" d="M248.6,324.6c0-12.7-7.6-27.1-19.7-39l-10.1,6.9c0,0,7.1,33.1-12.8,42.5c-19.9,9.5-46.3,9.9-62.9,8
		c-5.1-0.6-5.8,5.1-4.4,13.2c9.9,3.4,21,5.3,32.8,5.3C212.3,361.4,248.6,352.4,248.6,324.6z"/>
	<path class="st5" d="M96.5,174.7c-11,6.8-22.2,23.1-25.1,36.3c3.3,7.1,26.9,27.9,26.9,27.9S93.7,298,99,309.8
		c7.4-2.4,28.6-11.1,67-13.6c38.4-2.5,78.8-3.2,78.8-3.2l-5-52.3c15.1-9.5,25.8-25.8,25.8-25.8c-8.2-19.5-30.9-37.8-30.9-37.8
		c-14.5,2.5-27.7,13.2-27.7,13.2s-2.4,27.1-30.7,30.3c-30.7,3.4-36.4-25.5-36.4-25.5S109.1,174.9,96.5,174.7z"/>
	<path class="st6" d="M244.6,291l-4.8-50.2c15.1-9.5,25.8-25.8,25.8-25.8c-3.7-8.9-10.4-17.5-16.7-24.3c-8.9,3.9-31.8,20.2-33,34.3
		c-1.1,13.4,9.9,45.2,12.4,68.4c7-0.2,12.2-0.3,14.7-0.3C243.6,292.4,244.1,291.7,244.6,291z"/>
	<path class="st7" d="M289.3,361.9c0,19.1-9.7,15.6-28.7,15.6l0,0c-19.1,0-27.5,4.9-27.5-14.2l-7-77c0-19.1,15.4-34.5,34.5-34.5l0,0
		c19.1,0,34.5,15.5,34.5,34.5L289.3,361.9z"/>
	<path class="st7" d="M161.2,344.4c18.1,5.9,8,6.4,2.2,24.5l0,0c-5.9,18.1,3.2,26.2-14.9,20.4c0,0-64.3-10.8-82.5-15.6
		c-18.2-4.7-28.1-25.3-22.2-43.4l0,0c5.9-18.1,22.8-26.9,43.4-22.2S161.2,344.4,161.2,344.4z"/>
	<g>
		<path class="st2" d="M96.7,174.3c0,0-21.8-12.3-32.7-16.4c-1.9-0.7-2.8-1.9-3.2-3.1c-0.2,3.3-1.6,8.7-7.5,13.8
			c-9.1,7.9-17.6,9.1-27,7.7c3.6,1.5,10.1,2.2,13.1,3.8c3.1,1.6,26.9,30.5,39.4,37.2c0,0,0.1,0,0.1,0l10.7-8.3
			C94.9,196.3,96.7,174.3,96.7,174.3z"/>
	</g>
	<path class="st8" d="M179.6,177.9c-3.1-0.5-6.2-0.8-9.5-0.8c-20,0-36.7,10.2-41.6,23.9c8.6,2.8,20.7,5.9,34.6,6.9
		c10.5,0.7,25.4-2,34.5-6.2C213.9,194.1,200.9,189.9,179.6,177.9z"/>
	<path class="st8" d="M96.7,174.3c0,0-6.7-3.8-14.5-7.9c-0.4,3.7-1.2,16.9,7.4,24.2c1.4,1.2,2.9,2.1,4.4,2.9
		C96,183.5,96.7,174.3,96.7,174.3z"/>
	<path class="st6" d="M149.1,212c-7.3-7.5-9.2-16.9-9.2-16.9s-30.8-20.2-43.4-20.3c-11,6.8-22.5,24-25.3,37.2
		c3.3,7.1,27.2,27,27.2,27S93.7,298,99,309.8c6.1-2,21.7-8.3,48.7-11.8C138.1,257.1,144.5,226.5,149.1,212z"/>
	<path class="st9" d="M139.9,195.1c0,0-30.8-20.2-43.4-20.3c-3.9,2.4-7.8,6-11.4,10.3c1.1,2,2.5,4,4.5,5.6
		c10.1,8.5,25.8,5.4,25.8,5.4s11.4,5.5,28.5,9.2C140.8,199.8,139.9,195.1,139.9,195.1z"/>
	<path class="st10" d="M151.4,24c-1.7-0.1,25.9,3.7,29.1-8.7c2-7.7-1.8-15.3-1.8-15.3S177.9,25.3,151.4,24z"/>
	<path class="st10" d="M234.3,87.7C227,96,204.6,84.9,191.2,73c-13.4-11.9-18.3-28.3-10.9-36.6c7.4-8.3,26.4-7.3,39.8,4.6
		C233.5,52.9,241.7,79.3,234.3,87.7z"/>
	<path class="st3" d="M248.4,136.8c-4.8,46.7-40.1,69.7-82.1,67.3c-46.9-2.6-82.8-42.7-80.2-89.7c2.6-46.9,42.7-82.8,89.7-80.2
		c28.3,1.6,40.8,18.3,55,40.5C240.2,89.3,251,112.2,248.4,136.8z"/>
	<path d="M226.9,97.4c0.7,2.4-0.7,4.9-3.2,5.6l0,0c-2.4,0.7-5-0.7-5.6-3.2l-1.8-6.6c-0.7-2.4,0.7-5,3.2-5.6l0,0
		c2.4-0.7,5,0.7,5.6,3.2L226.9,97.4z"/>
	<path class="st11" d="M212.9,193.2c0-2.2-0.2-4.4-0.7-6.5c-3.2,2.1-5.2,3.7-5.2,3.7s-2.4,27.1-30.7,30.3
		c-30.7,3.4-36.4-25.5-36.4-25.5s-3.3-2.2-8.2-5.1c-0.1,1-0.2,2.1-0.2,3.2c0,20.1,18.2,36.4,40.7,36.4
		C194.7,229.6,212.9,213.3,212.9,193.2z"/>
	<path class="st12" d="M139.7,195C139.7,195,139.7,195,139.7,195c-0.8-0.5-3.8-2.5-8-5c-0.1,1-0.2,2.1-0.2,3.2
		c0,11.4,5.8,21.5,14.9,28.2c0.8-3.6,1.7-6.8,2.6-9.4c-5.5-5.6-7.9-12.3-8.8-15.3c0,0,0,0,0,0c-0.1-0.2-0.1-0.4-0.2-0.6
		c0,0,0-0.1,0-0.1c0-0.1-0.1-0.2-0.1-0.3c0-0.1,0-0.1,0-0.2c0,0,0-0.1,0-0.1c0-0.1,0-0.1,0-0.2c0,0,0,0,0-0.1c0,0,0,0,0,0
		S139.9,195,139.7,195C139.8,195,139.8,195,139.7,195z"/>
	<path class="st13" d="M140.3,196.7C140.3,196.7,140.3,196.6,140.3,196.7c-0.1-0.3-0.1-0.4-0.2-0.6c0,0,0-0.1,0-0.1
		c0-0.1-0.1-0.2-0.1-0.3c0-0.1,0-0.1,0-0.2c0,0,0-0.1,0-0.1c0-0.1,0-0.1,0-0.2c0,0,0,0,0-0.1c0,0,0,0,0,0s0,0,0,0c0,0-0.1,0-0.1-0.1
		c0,0,0,0,0,0c-0.7-0.5-3.8-2.4-8-4.9c-0.1,1-0.2,2.1-0.2,3.2c0,3.2,0.5,6.3,1.3,9.2c3.3,1,7,1.9,11,2.8
		C141.9,201.7,140.8,198.5,140.3,196.7z"/>
	<path d="M171.4,111.8c0.7,2.4-0.7,4.9-3.2,5.6l0,0c-2.4,0.7-5-0.7-5.6-3.2l-1.8-6.6c-0.7-2.4,0.7-5,3.2-5.6l0,0
		c2.4-0.7,5,0.7,5.6,3.2L171.4,111.8z"/>
	<path class="st2" d="M201.6,185.4c-47.4-2.6-83.6-43.2-81-90.5c1.3-22.7,11.2-42.8,26.4-57.4c-33.6,9.9-58.9,40-61,76.9
		c-2.6,46.9,33.3,87.1,80.2,89.7c24.1,1.3,46-5.7,61.2-20.7C219.4,185.3,210.6,185.9,201.6,185.4z"/>
	<path class="st14" d="M199.8,107.7c3.5-1,7.2,1.1,8.1,4.6c1,3.5-1.1,7.2-4.6,8.1"/>
	<path class="st15" d="M178.6,0c0,0-0.8,25.3-27.3,24c-33.4-1.6-64.9,18.2-76.4,34.5c-4.6,6.5-17.1,4.2-17.1,4.2s7.2,12.7,4.2,21.5
		c-1.9,5.7-3.8,17-3.7,25.9c0.4,38.8,19.2,49.7,29.6,55.3c14,7.5,22.3-0.7,23.2-20.2c0.7-14.2-5-36.8-3.5-51.3
		c3.9-35.8,37.6-28.8,68.8-23.3c20.1,3.6,33-14.6,34-33.5C211.7,18.2,178.6,0,178.6,0z"/>
	<path class="st10" d="M109.7,155.8C70.3,119,76.5,71.9,82.2,50.3c-2.9,2.8-5.4,5.6-7.3,8.3c-4.6,6.5-17.1,4.2-17.1,4.2
		s7.2,12.7,4.2,21.5c-1.9,5.7-3.8,17-3.7,25.9c0.4,38.8,19.2,49.7,29.6,55.3C99.1,171.4,106.6,167.4,109.7,155.8z"/>
	<path class="st10" d="M164.6,68.5c4,0.7,8,1.4,12,2.1c0.8,0.1,1.5,0.2,2.3,0.3c12.5-9.4,12-27,12-27
		C185.7,55.8,173.8,63.8,164.6,68.5z"/>
	<path class="st10" d="M150.1,66.5c3.1-3.1,6.4-7.9,8.7-15.5c0,0-8.6,12.3-22.3,15.2C140.7,66,145.3,66.1,150.1,66.5z"/>
	<path class="st16" d="M228,128.7c3.5,10.7-2.3,22.2-12.9,25.7c-10.7,3.5-22.2-2.3-25.7-12.9C187.5,135.6,226.2,123.2,228,128.7z"/>
	<path class="st17" d="M215,141.4c-1.2,0.5-2.1,1.4-2.6,2.5c-1.1-0.6-2.4-0.7-3.6-0.2c-2.3,0.9-3.4,3.4-2.6,5.7
		c0.9,2.3,5.2,2.1,8.6,0.8c3.4-1.3,6.8-4,5.9-6.3C219.9,141.7,217.3,140.5,215,141.4z"/>
	<circle class="st2" cx="100.7" cy="170.8" r="16.1"/>
	<path class="st14" d="M102.2,179.5c-4.7,0.4-8.8-3.1-9.2-7.8c-0.4-4.7,3.1-8.8,7.8-9.2"/>
	<path class="st1" d="M63.1,309.2c-9.1,3.5-16.1,10.8-19.4,21.1c-5.9,18.1,4,38.7,22.2,43.4c18.2,4.7,82.5,15.6,82.5,15.6
		c1.4,0.4,2.6,0.8,3.6,1.1l3-17.6c0,0-25.5-5.2-61.5-16.1C63.4,347.6,55.3,323.2,63.1,309.2z"/>
	<path class="st1" d="M226,286.3l7,77c0,16.7,6.5,15,21,14.3c1-6,1.1-13.5-0.2-22.9c-7-53.1-6.3-89.5-0.1-102.4
		C237.9,255.6,226,269.6,226,286.3z"/>
	<path class="st18" d="M222.3,388.5c5-15.8-10.5-34.8-34.7-42.5c-10.2-3.2-20.3-3.9-29-2.4c-3.2,7-6.8,14.1-9.2,21.8
		c-2.4,7.7-3.6,15.6-5,23.1c6.2,6.2,14.9,11.5,25.1,14.7C193.6,410.9,217.3,404.3,222.3,388.5z"/>
	<path class="st18" d="M260.5,391.2c13.8,0,26.8-1.6,38.3-4.5c-0.1-22.6-17.2-40.9-38.3-40.9c-21.1,0-38.2,18.3-38.3,40.9
		C233.7,389.6,246.7,391.2,260.5,391.2z"/>
	<path class="st19" d="M222.2,386.7c5.5,1.4,11.3,2.5,17.4,3.2c0.5-29.1,8.6-39.7,12.5-43.1C235.1,350.9,222.4,367.2,222.2,386.7z"
		/>
	<path class="st11" d="M262.1,381.3c-13.6,0-26.7-0.8-38.9-2.2c-0.6,2.8-0.9,5.6-0.9,8.6c11.5,2.9,24.5,4.5,38.3,4.5
		c13.8,0,26.8-1.6,38.3-4.5c0-2.8-0.3-5.6-0.8-8.2C286.6,380.6,274.5,381.3,262.1,381.3z"/>
	<path class="st19" d="M222.3,388.5c1.1-3.5,1.2-7.1,0.4-10.8c-24.1,23.6-67.6-1.1-75.1-5.6c-1.3,5.5-2.2,11.1-3.2,16.5
		c6.2,6.2,14.9,11.5,25.1,14.7C193.6,410.9,217.3,404.3,222.3,388.5z"/>
	<path class="st20" d="M163.5,381.8c0,0-0.5-15.6,8.5-22.7"/>
	<path class="st20" d="M176.8,385.6c0,0-0.5-15.6,8.5-22.7"/>
	<path class="st20" d="M244.3,356.7c0,0,15.6-10.9,29.8-0.5"/>
	<path class="st12" d="M244.7,380.8c-7.4-0.4-14.6-1-21.6-1.8c-0.6,2.8-0.9,5.6-0.9,8.6c6.7,1.7,14,2.9,21.6,3.7
		C244.3,386.7,244.6,382.8,244.7,380.8z"/>
	<path class="st21" d="M265.1,262.2c-4.2,3.8,8.5,10.9,9,28.8c0.5,18,3.3,51.5,7.1,43.5c3.8-8,8-50.6,1.9-61
		C277,263.1,270.3,257.5,265.1,262.2z"/>
	<path class="st21" d="M75.6,320.8c-2.8,5,16.5,13.7,35,20.8c18.4,7.1,22.7,1.4,17.5-2.4C122.9,335.5,80.3,312.3,75.6,320.8z"/>
	<path class="st22" d="M207,259.8c-10.4-4.3-51.1-1.4-46.8,15.6c4.3,17,42.1,13.2,50.1,8C218.3,278.3,224,266.9,207,259.8z"/>
	<path class="st23" d="M282.8,149.4c-3.5,1.6,1.3,10.7,5.7,9.8C292.9,158.2,290,146.1,282.8,149.4z"/>
	<path class="st23" d="M207.8,65.2c-3.7,3.9,6.3,15.8,9.5,14.2C220.4,77.8,212.8,59.9,207.8,65.2z"/>
	<path class="st23" d="M45.8,148.4c-3.8,2.5,1.3,12,5.7,10.1C55.9,156.6,52.4,144,45.8,148.4z"/>
	<path class="st24" d="M185.3,17.8c0.8-1.8-7.1,14.2-36.4,13.7c-29.3-0.5-48.2,12.3-46.3,20.3c1.9,8,26-3.3,44.9-7.1
		C166.4,41,179.6,30.6,185.3,17.8z"/>
	<path class="st25" d="M184.2,351.4c-1.6,2,12.6,9.5,18.6,17.3c6,7.9,6.9-4.7,0.9-8.8C197.7,355.8,187,347.9,184.2,351.4z"/>
	<path class="st25" d="M281.2,361.8c-3.3,2-1.6,13.9,4.7,12.9C292.2,373.7,286.6,358.6,281.2,361.8z"/>
</g>
</svg>
